<svg xmlns="http://www.w3.org/2000/svg" width="114.125" height="130.903" viewBox="0 0 114.125 130.903">
  <g id="Group_1261" data-name="Group 1261" transform="translate(-541.242 -312.684)">
    <g id="Group_601" data-name="Group 601" transform="translate(551.692 329.139)">
      <g id="Group_543" data-name="Group 543">
        <path id="Path_220" data-name="Path 220" d="M632.489,346.13a36.632,36.632,0,0,0-8.587-8.783,55.513,55.513,0,0,0-12.186-7.416,42.191,42.191,0,0,0-30-1.119,41.1,41.1,0,0,0-20.408,16,42.374,42.374,0,0,0-7.358,24.2,39.329,39.329,0,0,0,3.222,14.716,64.325,64.325,0,0,0,3.392,6.3c1.1,1.936,2.157,4.2,1.5,6.463-.341,1.169-1.255,2.1-1.376,3.343a3.387,3.387,0,0,0,.053.954c-1.428,2.263-3.924,3.809-4.033,6.755-.007.179,0,.352.008.526-.007.006-.015.007-.022.014-2.238,2.044-4.547,5.029-3.925,8.24-2.07,1.665-3.359,4.517-2.342,7.092a10.075,10.075,0,0,0,3.2,4.008A8.027,8.027,0,0,0,551.769,433a8.328,8.328,0,0,0,2.791,5.1A10.545,10.545,0,0,0,566.07,440.1a8.482,8.482,0,0,0,4.036-4.253,7.353,7.353,0,0,0,3.4.39c2.757-.482,4.082-3.394,4.93-5.746l.058-.019c2.9-1.166,3.88-4.495,4.5-7.272a.672.672,0,0,0,0-.139,4.561,4.561,0,0,0,2.275-1.943,10.967,10.967,0,0,0,1.157-4.785.606.606,0,0,0-.09-.368,4.395,4.395,0,0,0,1.976-.862,9.048,9.048,0,0,0,1.877-2.339,6.109,6.109,0,0,1,2.109-2.305,7.136,7.136,0,0,1,2.818-.767c2.058-.194,4.108-.092,6.162-.386a44.309,44.309,0,0,0,26.073-13.313,38.65,38.65,0,0,0,4.166-5.39.672.672,0,0,0,.007-.77,42.677,42.677,0,0,0,4.575-9.682,44.232,44.232,0,0,0,2.013-11.684C638.417,360.718,636.766,352.68,632.489,346.13Zm-69.729,52.077a6.753,6.753,0,0,0,.848-3.056c0-.051,0-.1,0-.151,1.418.264,2.843.491,4.251.822a34.635,34.635,0,0,1,3.334.978c-.746,1.1-1.492,2.2-2.256,3.29a7.473,7.473,0,0,0-1.57.085,5.382,5.382,0,0,0-4.06,2.86c-.262-.362-.521-.726-.746-1.1a3.921,3.921,0,0,1-.572-1.5c.011-.036.026-.071.036-.107a.416.416,0,0,0-.044-.324A4.87,4.87,0,0,1,562.761,398.206Zm20.831-44.656a19.173,19.173,0,0,1,2.2,8.807C583.152,360.57,581.882,356.337,583.591,353.55Zm10.294,11.592a5.131,5.131,0,0,0,3.334,4.262c3.257,1.267,6.212-.206,8.741-2.184a8.05,8.05,0,0,0,1.378,7c-1.23,1.075-2.411,2.214-3.561,3.347a101.979,101.979,0,0,0-11.142,13.249,105.867,105.867,0,0,0-7.643,12.347c-.387-.281-.776-.555-1.162-.821a68.778,68.778,0,0,0-8.869-5.108c-.446-.218-.839.442-.392.671a46.811,46.811,0,0,1,8.4,5.553c.443.366.88.739,1.317,1.111-.473.93-.943,1.861-1.385,2.806a15.081,15.081,0,0,0-3.721-2.772c-1.984-1.141-3.956-2.367-6.027-3.346a12.938,12.938,0,0,0-2.774-.976,102.473,102.473,0,0,0,10.728-17.474c2.789-5.678,5.566-11.768,5.993-18.163a8.06,8.06,0,0,0,6.858-1.447A6.924,6.924,0,0,0,593.885,365.143Zm-35.674,73.319a8.771,8.771,0,0,1-4.531-4.359,5.389,5.389,0,0,1-.322-3.076,20.006,20.006,0,0,1,1.061-2.986c.611.452,1.236.879,1.845,1.287a50.808,50.808,0,0,0,8.378,4.517q1.95.833,3.961,1.507C566.807,439.246,561.868,440.121,558.211,438.461Zm15.312-3.616c-1.342.362-2.8-.246-4.069-.664-1.3-.431-2.594-.915-3.857-1.46a46.72,46.72,0,0,1-7.1-3.854c-2.048-1.343-4.363-2.838-5.816-4.856a4.7,4.7,0,0,1-.966-3.6,11.747,11.747,0,0,1,1.319-3.136,8.771,8.771,0,0,0,2.7,3.237c1.3,1.1,2.652,2.129,4.051,3.094a53.535,53.535,0,0,0,8.94,5,38.233,38.233,0,0,0,4.787,1.806,9.572,9.572,0,0,0,3.426.424C576.249,432.466,575.277,434.371,573.523,434.845Zm4.9-6.021a5.353,5.353,0,0,1-4.214.031,45,45,0,0,1-4.252-1.588,49.221,49.221,0,0,1-7.813-4.162c-1.259-.828-2.483-1.707-3.661-2.645a21.252,21.252,0,0,1-3.251-2.915c-2.242-2.718-.055-5.852,1.658-8.252.667,2.677,3.008,4.72,5.157,6.342a42.23,42.23,0,0,0,9.178,5.242,43.319,43.319,0,0,0,5.029,1.751,15.689,15.689,0,0,0,5.017.851c.107-.006.2-.04.308-.052C581.053,425.436,580.306,427.776,578.426,428.824Zm6.643-12.492a10.919,10.919,0,0,1-.919,3.787,3.5,3.5,0,0,1-3.352,1.887,17.257,17.257,0,0,1-4.394-.876,39.7,39.7,0,0,1-4.456-1.563,41.369,41.369,0,0,1-8.086-4.538c-2.327-1.671-5.185-3.79-5.532-6.869-.277-2.462,1.641-4.125,2.87-6.076a8.6,8.6,0,0,0,.612,1.04,28.955,28.955,0,0,0,4.612,5.088,32.232,32.232,0,0,0,11.839,6.625,25.03,25.03,0,0,0,6.845,1.241l.044,0A.729.729,0,0,0,585.069,416.332Zm5.012-5.42c-.619.787-1.068,1.7-1.69,2.482a3.773,3.773,0,0,1-3.152,1.53c-.265,0-.534-.033-.8-.049a.728.728,0,0,0,.206-.426,9.558,9.558,0,0,0-.762-5.732.691.691,0,0,0,.14-.193c.445-1,.914-1.989,1.391-2.972.426.378.854.752,1.267,1.143,1.228,1.159,2.368,2.4,3.6,3.562a.925.925,0,0,0,.25.162A5.437,5.437,0,0,0,590.081,410.912Zm42.769-25.618a30.327,30.327,0,0,1-2.048,4.149.744.744,0,0,0-.668.354A41.963,41.963,0,0,1,608.5,406.52a40.048,40.048,0,0,1-7.913,1.824c-1.917.238-3.851.081-5.768.289a8.182,8.182,0,0,0-3.156.934.879.879,0,0,0-.194-.5,31.32,31.32,0,0,0-5.3-5.022,93.206,93.206,0,0,1,14.264-20.792c1.689-1.851,3.416-3.665,5.22-5.4.9-.867,1.8-1.758,2.738-2.609a6.812,6.812,0,0,0,1.8,1.026,7.357,7.357,0,0,0,6.347-.523,4.991,4.991,0,0,0,2.172-2.534,2.306,2.306,0,0,0-.958-2.888,5.625,5.625,0,0,0-3.753-.153,11.277,11.277,0,0,0-3.675,1.707c-.643.438-1.265.912-1.874,1.4a5.636,5.636,0,0,1-.86-1.46,7.124,7.124,0,0,1,.755-6.7c.463-.645-.51-1.284-1.048-.809-2.458,2.178-5.588,4.842-9.126,3.857a3.854,3.854,0,0,1-2.909-3.256,8.354,8.354,0,0,1,.665-3.906,7.469,7.469,0,0,0,.787-1.792c.193-.675-.868-1.169-1.168-.492-.167.376-.336.757-.5,1.14a6.939,6.939,0,0,1-7.886,3.153c0-.076,0-.152,0-.227A18.052,18.052,0,0,0,584.07,352.4a.5.5,0,0,0-.842,0,8.233,8.233,0,0,0,.043,9.751,6.722,6.722,0,0,0,2.484,2.008,31.027,31.027,0,0,1-1.517,7.829,91.167,91.167,0,0,1-9.062,18.647c-1.022,1.689-2.089,3.349-3.182,4.991a16.379,16.379,0,0,0-8.385-1.488.393.393,0,0,0-.053.017,13.544,13.544,0,0,0-1.843-4.927,55.139,55.139,0,0,1-3.157-6.077,38.674,38.674,0,0,1,1.259-32.115,40.911,40.911,0,0,1,16.434-17.857,39.631,39.631,0,0,1,28.635-3.661,42.732,42.732,0,0,1,12.517,5.434,64.943,64.943,0,0,1,5.613,3.974,44.814,44.814,0,0,1,4.792,4.18c5.133,5.376,7.77,12.7,8.465,20.01A47.242,47.242,0,0,1,632.85,385.294Zm-23.335-11.023a22.021,22.021,0,0,1,1.93-1.461,9.846,9.846,0,0,1,3.355-1.525c.99-.208,3.121-.393,2.856,1.189-.346,2.059-3.032,2.958-4.824,2.915A5.889,5.889,0,0,1,609.515,374.271Z" transform="translate(-550.068 -326.58)" fill="#39262b"/>
        <path id="Path_221" data-name="Path 221" d="M608.246,335.069a28.367,28.367,0,0,0-7.769-2.567,31.335,31.335,0,0,0-16.369,1.428,34.02,34.02,0,0,0-12.7,8.5,38.941,38.941,0,0,0-8.08,12.951,45.58,45.58,0,0,0-3.2,17.345c.054,1.977.214,5.674,3.154,5.177a3.32,3.32,0,0,0,2.439-2.017,9.132,9.132,0,0,0,.189-4.234c-.374-5.158,1.426-10.6,3.608-15.205.448-.945.938-1.872,1.44-2.79a.617.617,0,0,0,.449-.284c2.8-4.233,7.051-7.793,12.164-8.667,1.948-.333,4.471-.014,6.011-1.526.893-.876.7-1.85.6-2.973-.108-1.173,1.232-1.52,2.163-1.642a27.062,27.062,0,0,1,4.446-.037c1.6.062,3.189.178,4.773.368,1.62.194,3.224.507,4.818.853,1.147.25,2.771,1.009,3.874.305a2.223,2.223,0,0,0,.724-2.635A5.012,5.012,0,0,0,608.246,335.069Zm.724,3.953a16.978,16.978,0,0,1-1.957-.49q-1.165-.277-2.344-.487c-1.445-.259-2.9-.471-4.36-.635s-2.9-.26-4.359-.295a23.167,23.167,0,0,0-3.971.11,4.412,4.412,0,0,0-2.511,1.1,2.4,2.4,0,0,0-.632,1.153,5.959,5.959,0,0,0,.111,1.745c.125,2.007-3.39,1.857-4.671,2a18.726,18.726,0,0,0-11.869,6.649,23.434,23.434,0,0,0-2.092,2.858.552.552,0,0,0-.045.548,35.593,35.593,0,0,0-5.4,12.833,25.6,25.6,0,0,0-.329,7c.077,1.17.052,2.8-1.288,3.26-1.285.442-1.492-1.25-1.562-2.124a43.147,43.147,0,0,1,2.193-16.461,37.544,37.544,0,0,1,7.049-12.959,31.837,31.837,0,0,1,26.472-11.476,28.28,28.28,0,0,1,7.673,1.691,22.014,22.014,0,0,1,3.479,1.61,2.482,2.482,0,0,1,1.3,1.348A.758.758,0,0,1,608.97,339.021Z" transform="translate(-548.217 -325.581)" fill="#39262b"/>
        <path id="Path_222" data-name="Path 222" d="M621.648,364.975a36.1,36.1,0,0,0-1.284-8.7c-.909-3.571-2.115-7.462-4.4-10.417a6.892,6.892,0,0,0-3.306-2.556,2.865,2.865,0,0,0-2.286.136,2.985,2.985,0,0,0-1.293,2.783,5.933,5.933,0,0,0,1.848,3.288,26.746,26.746,0,0,1,2.81,3.593,19.184,19.184,0,0,1,3.032,8.288,20.13,20.13,0,0,1-.155,4.661c-.143,1.15-.217,2.575.659,3.478a2.463,2.463,0,0,0,3.307.052c1.246-.97,1.454-2.678,1.349-4.151A.551.551,0,0,0,621.648,364.975Zm-.845.458c-.043,1.214-.025,2.849-1.321,3.446-1.275.586-1.738-.717-1.716-1.73.025-1.125.31-2.229.367-3.353a16.639,16.639,0,0,0-.261-3.764,21.683,21.683,0,0,0-2.648-6.94,24.108,24.108,0,0,0-2.2-3.146,19,19,0,0,1-2.314-2.843c-.413-.777-.527-2.4.656-2.6a2.441,2.441,0,0,1,1.372.31,7.1,7.1,0,0,1,2.556,2.555,32.131,32.131,0,0,1,3.828,9.083c.495,1.742.9,3.493,1.3,5.257a27.9,27.9,0,0,1,.585,3.3A.53.53,0,0,0,620.8,365.433Z" transform="translate(-539.205 -323.533)" fill="#39262b"/>
      </g>
      <path id="Path_223" data-name="Path 223" d="M631.976,385.02a30.317,30.317,0,0,1-2.047,4.149.744.744,0,0,0-.668.354,41.961,41.961,0,0,1-21.636,16.723,40.037,40.037,0,0,1-7.913,1.824c-1.917.238-3.851.081-5.768.289a8.184,8.184,0,0,0-3.156.934.879.879,0,0,0-.194-.5,31.313,31.313,0,0,0-5.3-5.022,93.211,93.211,0,0,1,14.264-20.792c1.689-1.851,3.416-3.665,5.22-5.4.9-.867,1.8-1.758,2.738-2.609a6.813,6.813,0,0,0,1.8,1.025,7.357,7.357,0,0,0,6.347-.523,4.99,4.99,0,0,0,2.172-2.534,2.306,2.306,0,0,0-.958-2.888,5.625,5.625,0,0,0-3.752-.153,11.275,11.275,0,0,0-3.675,1.707c-.643.438-1.265.912-1.874,1.4a5.641,5.641,0,0,1-.86-1.46,7.125,7.125,0,0,1,.756-6.7c.463-.645-.51-1.284-1.048-.809-2.458,2.178-5.588,4.842-9.126,3.857a3.853,3.853,0,0,1-2.909-3.256,8.353,8.353,0,0,1,.665-3.906,7.472,7.472,0,0,0,.787-1.792c.193-.675-.868-1.169-1.168-.493-.167.376-.336.757-.5,1.14a6.939,6.939,0,0,1-7.886,3.153c0-.076,0-.151,0-.227a18.052,18.052,0,0,0-3.093-10.391.5.5,0,0,0-.842,0,8.233,8.233,0,0,0,.043,9.751,6.722,6.722,0,0,0,2.484,2.008,31.022,31.022,0,0,1-1.517,7.829,91.15,91.15,0,0,1-9.062,18.647c-1.022,1.689-2.089,3.349-3.182,4.991a16.379,16.379,0,0,0-8.385-1.488.393.393,0,0,0-.053.017,13.542,13.542,0,0,0-1.843-4.927,55.123,55.123,0,0,1-3.157-6.077,38.674,38.674,0,0,1,1.259-32.115A40.911,40.911,0,0,1,575.376,332.9a39.632,39.632,0,0,1,28.635-3.661,42.731,42.731,0,0,1,12.517,5.434,64.964,64.964,0,0,1,5.613,3.974,44.829,44.829,0,0,1,4.792,4.18c5.133,5.376,7.77,12.7,8.465,20.01A47.24,47.24,0,0,1,631.976,385.02Z" transform="translate(-549.194 -326.306)" fill="#ffbf4a"/>
      <g id="Group_544" data-name="Group 544" transform="translate(69.864 19.602)">
        <path id="Path_224" data-name="Path 224" d="M621.648,364.975a36.1,36.1,0,0,0-1.284-8.7c-.909-3.571-2.115-7.462-4.4-10.417a6.892,6.892,0,0,0-3.306-2.556,2.865,2.865,0,0,0-2.286.136,2.985,2.985,0,0,0-1.293,2.783,5.933,5.933,0,0,0,1.848,3.288,26.746,26.746,0,0,1,2.81,3.593,19.184,19.184,0,0,1,3.032,8.288,20.13,20.13,0,0,1-.155,4.661c-.143,1.15-.217,2.575.659,3.478a2.463,2.463,0,0,0,3.307.052c1.246-.97,1.454-2.678,1.349-4.151A.551.551,0,0,0,621.648,364.975Z" transform="translate(-609.069 -343.135)" fill="#39262b"/>
        <path id="Path_225" data-name="Path 225" d="M620.592,365.223c-.043,1.214-.025,2.849-1.322,3.446-1.275.586-1.738-.718-1.716-1.73.025-1.125.31-2.228.367-3.353a16.649,16.649,0,0,0-.26-3.764,21.686,21.686,0,0,0-2.648-6.94,24.119,24.119,0,0,0-2.2-3.146,19,19,0,0,1-2.314-2.843c-.413-.777-.527-2.4.656-2.6a2.44,2.44,0,0,1,1.372.31,7.1,7.1,0,0,1,2.557,2.555,32.131,32.131,0,0,1,3.828,9.083c.495,1.742.9,3.493,1.3,5.257a27.916,27.916,0,0,1,.585,3.3A.531.531,0,0,0,620.592,365.223Z" transform="translate(-608.858 -342.924)" fill="#ffbf4a"/>
      </g>
      <g id="Group_545" data-name="Group 545" transform="translate(1.582 26.97)">
        <path id="Path_226" data-name="Path 226" d="M560.909,387.569a6.754,6.754,0,0,0,.848-3.056c0-.051,0-.1,0-.152,1.419.264,2.843.491,4.251.822a34.625,34.625,0,0,1,3.334.978c-.746,1.1-1.492,2.2-2.256,3.29a7.474,7.474,0,0,0-1.57.085,5.382,5.382,0,0,0-4.06,2.86c-.262-.362-.521-.726-.746-1.1a3.919,3.919,0,0,1-.572-1.5c.011-.036.026-.071.036-.107a.417.417,0,0,0-.044-.324A4.87,4.87,0,0,1,560.909,387.569Z" transform="translate(-549.797 -342.913)" fill="#ffbf4a"/>
        <path id="Path_227" data-name="Path 227" d="M590.727,359.449a5.131,5.131,0,0,0,3.334,4.262c3.257,1.267,6.212-.206,8.741-2.184a8.05,8.05,0,0,0,1.378,7c-1.23,1.075-2.411,2.214-3.56,3.347a101.979,101.979,0,0,0-11.142,13.249,105.842,105.842,0,0,0-7.643,12.347c-.387-.281-.776-.555-1.162-.821a68.782,68.782,0,0,0-8.869-5.108c-.446-.218-.84.442-.392.671a46.806,46.806,0,0,1,8.4,5.553c.443.366.88.739,1.317,1.111-.472.929-.943,1.861-1.385,2.806a15.083,15.083,0,0,0-3.72-2.772c-1.985-1.142-3.956-2.367-6.027-3.346a12.941,12.941,0,0,0-2.774-.976,102.47,102.47,0,0,0,10.728-17.474c2.788-5.678,5.566-11.768,5.993-18.163A8.06,8.06,0,0,0,590.8,357.5,6.922,6.922,0,0,0,590.727,359.449Z" transform="translate(-548.491 -347.857)" fill="#ffbf4a"/>
        <path id="Path_228" data-name="Path 228" d="M557.714,422.686a8.771,8.771,0,0,1-4.532-4.359,5.388,5.388,0,0,1-.322-3.076,19.985,19.985,0,0,1,1.061-2.986c.611.452,1.236.879,1.845,1.287a50.821,50.821,0,0,0,8.378,4.517q1.95.833,3.961,1.507C566.31,423.471,561.371,424.346,557.714,422.686Z" transform="translate(-551.152 -337.775)" fill="#39262b"/>
        <path id="Path_229" data-name="Path 229" d="M573.277,420.744c-1.342.362-2.8-.246-4.068-.664-1.3-.431-2.594-.915-3.857-1.46a46.723,46.723,0,0,1-7.1-3.854c-2.048-1.343-4.363-2.838-5.816-4.856a4.694,4.694,0,0,1-.966-3.6,11.741,11.741,0,0,1,1.319-3.136,8.77,8.77,0,0,0,2.7,3.237c1.3,1.1,2.652,2.129,4.051,3.094a53.525,53.525,0,0,0,8.94,5,38.208,38.208,0,0,0,4.787,1.806,9.574,9.574,0,0,0,3.426.424C576,418.366,575.031,420.271,573.277,420.744Z" transform="translate(-551.403 -339.45)" fill="#a8ac84"/>
        <path id="Path_230" data-name="Path 230" d="M577.771,415.964a5.353,5.353,0,0,1-4.214.031,44.986,44.986,0,0,1-4.252-1.588,49.228,49.228,0,0,1-7.813-4.162c-1.259-.828-2.483-1.707-3.661-2.645a21.249,21.249,0,0,1-3.252-2.915c-2.242-2.718-.055-5.852,1.658-8.252.667,2.677,3.008,4.72,5.157,6.342a42.233,42.233,0,0,0,9.178,5.242,43.353,43.353,0,0,0,5.029,1.751,15.69,15.69,0,0,0,5.017.851c.107-.006.2-.04.308-.052C580.4,412.576,579.651,414.916,577.771,415.964Z" transform="translate(-550.994 -340.69)" fill="#a8ac84"/>
        <path id="Path_231" data-name="Path 231" d="M583.789,404.592a10.921,10.921,0,0,1-.919,3.787,3.5,3.5,0,0,1-3.352,1.888,17.258,17.258,0,0,1-4.394-.876,39.72,39.72,0,0,1-4.456-1.563,41.367,41.367,0,0,1-8.086-4.538c-2.327-1.671-5.185-3.79-5.532-6.869-.277-2.462,1.641-4.125,2.87-6.076a8.6,8.6,0,0,0,.612,1.04,28.953,28.953,0,0,0,4.612,5.088,32.234,32.234,0,0,0,11.839,6.625,25.028,25.028,0,0,0,6.845,1.241l.044,0A.731.731,0,0,0,583.789,404.592Z" transform="translate(-550.369 -341.811)" fill="#a8ac84"/>
        <path id="Path_232" data-name="Path 232" d="M584.824,398.634c-.619.787-1.068,1.7-1.69,2.482a3.773,3.773,0,0,1-3.152,1.53c-.265,0-.534-.033-.8-.049a.73.73,0,0,0,.206-.426,9.56,9.56,0,0,0-.763-5.732.692.692,0,0,0,.14-.193c.445-1,.914-1.989,1.391-2.972.426.378.854.752,1.267,1.143,1.228,1.159,2.368,2.4,3.6,3.562a.927.927,0,0,0,.25.162A5.408,5.408,0,0,0,584.824,398.634Z" transform="translate(-546.392 -341.272)" fill="#ffbf4a"/>
        <path id="Path_233" data-name="Path 233" d="M600.272,367.341a22.02,22.02,0,0,1,1.93-1.461,9.847,9.847,0,0,1,3.354-1.525c.99-.208,3.121-.393,2.856,1.189-.346,2.059-3.032,2.958-4.824,2.915A5.888,5.888,0,0,1,600.272,367.341Z" transform="translate(-542.406 -346.621)" fill="#ffbf4a"/>
        <path id="Path_234" data-name="Path 234" d="M580.7,358.164c-2.643-1.788-3.913-6.021-2.2-8.807A19.169,19.169,0,0,1,580.7,358.164Z" transform="translate(-546.558 -349.357)" fill="#ffbf4a"/>
      </g>
      <g id="Group_546" data-name="Group 546" transform="translate(11.902 6.428)">
        <path id="Path_235" data-name="Path 235" d="M608.246,335.069a28.367,28.367,0,0,0-7.769-2.567,31.335,31.335,0,0,0-16.369,1.428,34.02,34.02,0,0,0-12.7,8.5,38.941,38.941,0,0,0-8.08,12.951,45.58,45.58,0,0,0-3.2,17.345c.054,1.977.214,5.674,3.154,5.177a3.32,3.32,0,0,0,2.439-2.017,9.132,9.132,0,0,0,.189-4.234c-.374-5.158,1.426-10.6,3.608-15.205.448-.945.938-1.872,1.44-2.79a.617.617,0,0,0,.449-.284c2.8-4.233,7.051-7.793,12.164-8.667,1.948-.333,4.471-.014,6.011-1.526.893-.876.7-1.85.6-2.973-.108-1.173,1.232-1.52,2.163-1.642a27.062,27.062,0,0,1,4.446-.037c1.6.062,3.189.178,4.773.368,1.62.194,3.224.507,4.818.853,1.147.25,2.771,1.009,3.874.305a2.223,2.223,0,0,0,.724-2.635A5.012,5.012,0,0,0,608.246,335.069Z" transform="translate(-560.119 -332.009)" fill="#39262b"/>
        <path id="Path_236" data-name="Path 236" d="M608.743,338.827a16.956,16.956,0,0,1-1.957-.49q-1.165-.277-2.344-.487c-1.445-.259-2.9-.471-4.36-.635s-2.9-.261-4.359-.295a23.165,23.165,0,0,0-3.972.11,4.412,4.412,0,0,0-2.511,1.1,2.4,2.4,0,0,0-.632,1.153,5.964,5.964,0,0,0,.111,1.745c.126,2.007-3.39,1.857-4.671,2a18.726,18.726,0,0,0-11.87,6.649,23.425,23.425,0,0,0-2.092,2.858.551.551,0,0,0-.045.548,35.59,35.59,0,0,0-5.4,12.833,25.582,25.582,0,0,0-.329,7c.077,1.17.052,2.8-1.288,3.26-1.285.442-1.492-1.25-1.562-2.124a43.146,43.146,0,0,1,2.193-16.461,37.544,37.544,0,0,1,7.049-12.959,31.837,31.837,0,0,1,26.472-11.476,28.282,28.282,0,0,1,7.673,1.691,22,22,0,0,1,3.479,1.61,2.48,2.48,0,0,1,1.3,1.348A.758.758,0,0,1,608.743,338.827Z" transform="translate(-559.891 -331.815)" fill="#ffbf4a"/>
      </g>
      <path id="Path_237" data-name="Path 237" d="M632.51,368.022a36.1,36.1,0,0,0-1.284-8.7c-.909-3.571-2.115-7.462-4.4-10.417a6.893,6.893,0,0,0-3.306-2.556,2.866,2.866,0,0,0-2.286.136,2.986,2.986,0,0,0-1.293,2.783,5.932,5.932,0,0,0,1.848,3.288,26.743,26.743,0,0,1,2.81,3.593,19.182,19.182,0,0,1,3.032,8.288,20.129,20.129,0,0,1-.155,4.661c-.143,1.15-.217,2.575.66,3.478a2.463,2.463,0,0,0,3.307.052c1.246-.97,1.454-2.678,1.349-4.152A.551.551,0,0,0,632.51,368.022Zm-.845.458c-.043,1.214-.025,2.849-1.322,3.446-1.275.586-1.738-.718-1.716-1.73.025-1.125.31-2.228.367-3.353a16.645,16.645,0,0,0-.26-3.764,21.687,21.687,0,0,0-2.648-6.94,24.112,24.112,0,0,0-2.2-3.146,19.012,19.012,0,0,1-2.314-2.843c-.413-.777-.527-2.4.656-2.6a2.44,2.44,0,0,1,1.372.31,7.1,7.1,0,0,1,2.556,2.555,32.136,32.136,0,0,1,3.828,9.083c.495,1.742.9,3.493,1.3,5.257a27.916,27.916,0,0,1,.585,3.3A.53.53,0,0,0,631.665,368.481Zm.824-22.351a36.632,36.632,0,0,0-8.587-8.783,55.513,55.513,0,0,0-12.186-7.416,42.191,42.191,0,0,0-30-1.119,41.1,41.1,0,0,0-20.408,16,42.374,42.374,0,0,0-7.358,24.2,39.329,39.329,0,0,0,3.222,14.716,64.325,64.325,0,0,0,3.392,6.3c1.1,1.936,2.157,4.2,1.5,6.463-.341,1.169-1.255,2.1-1.376,3.343a3.387,3.387,0,0,0,.053.954c-1.428,2.263-3.924,3.809-4.033,6.755-.007.179,0,.352.008.526-.007.006-.015.007-.022.014-2.238,2.044-4.547,5.029-3.925,8.24-2.07,1.665-3.359,4.517-2.342,7.092a10.075,10.075,0,0,0,3.2,4.008A8.027,8.027,0,0,0,551.769,433a8.328,8.328,0,0,0,2.791,5.1A10.545,10.545,0,0,0,566.07,440.1a8.482,8.482,0,0,0,4.036-4.253,7.353,7.353,0,0,0,3.4.39c2.757-.482,4.082-3.394,4.93-5.746l.058-.019c2.9-1.166,3.88-4.495,4.5-7.272a.672.672,0,0,0,0-.139,4.561,4.561,0,0,0,2.275-1.943,10.967,10.967,0,0,0,1.157-4.785.606.606,0,0,0-.09-.368,4.395,4.395,0,0,0,1.976-.862,9.048,9.048,0,0,0,1.877-2.339,6.109,6.109,0,0,1,2.109-2.305,7.136,7.136,0,0,1,2.818-.767c2.058-.194,4.108-.092,6.162-.386a44.309,44.309,0,0,0,26.073-13.313,38.65,38.65,0,0,0,4.166-5.39.672.672,0,0,0,.007-.77,42.677,42.677,0,0,0,4.575-9.682,44.232,44.232,0,0,0,2.013-11.684C638.417,360.718,636.766,352.68,632.489,346.13Zm-69.729,52.077a6.753,6.753,0,0,0,.848-3.056c0-.051,0-.1,0-.151,1.418.264,2.843.491,4.251.822a34.635,34.635,0,0,1,3.334.978c-.746,1.1-1.492,2.2-2.256,3.29a7.473,7.473,0,0,0-1.57.085,5.382,5.382,0,0,0-4.06,2.86c-.262-.362-.521-.726-.746-1.1a3.921,3.921,0,0,1-.572-1.5c.011-.036.026-.071.036-.107a.416.416,0,0,0-.044-.324A4.87,4.87,0,0,1,562.761,398.206Zm31.124-33.064a5.131,5.131,0,0,0,3.334,4.262c3.257,1.267,6.212-.206,8.741-2.184a8.05,8.05,0,0,0,1.378,7c-1.23,1.075-2.411,2.214-3.561,3.347a101.979,101.979,0,0,0-11.142,13.249,105.867,105.867,0,0,0-7.643,12.347c-.387-.281-.776-.555-1.162-.821a68.778,68.778,0,0,0-8.869-5.108c-.446-.218-.839.442-.392.671a46.811,46.811,0,0,1,8.4,5.553c.443.366.88.739,1.317,1.111-.473.93-.943,1.861-1.385,2.806a15.081,15.081,0,0,0-3.721-2.772c-1.984-1.141-3.956-2.367-6.027-3.346a12.938,12.938,0,0,0-2.774-.976,102.473,102.473,0,0,0,10.728-17.474c2.789-5.678,5.566-11.768,5.993-18.163a8.06,8.06,0,0,0,6.858-1.447A6.924,6.924,0,0,0,593.885,365.143Zm-35.674,73.319a8.771,8.771,0,0,1-4.531-4.359,5.389,5.389,0,0,1-.322-3.076,20.006,20.006,0,0,1,1.061-2.986c.611.452,1.236.879,1.845,1.287a50.808,50.808,0,0,0,8.378,4.517q1.95.833,3.961,1.507C566.807,439.246,561.868,440.121,558.211,438.461Zm15.312-3.616c-1.342.362-2.8-.246-4.069-.664-1.3-.431-2.594-.915-3.857-1.46a46.72,46.72,0,0,1-7.1-3.854c-2.048-1.343-4.363-2.838-5.816-4.856a4.7,4.7,0,0,1-.966-3.6,11.747,11.747,0,0,1,1.319-3.136,8.771,8.771,0,0,0,2.7,3.237c1.3,1.1,2.652,2.129,4.051,3.094a53.535,53.535,0,0,0,8.94,5,38.233,38.233,0,0,0,4.787,1.806,9.572,9.572,0,0,0,3.426.424C576.249,432.466,575.277,434.371,573.523,434.845Zm4.9-6.021a5.353,5.353,0,0,1-4.214.031,45,45,0,0,1-4.252-1.588,49.221,49.221,0,0,1-7.813-4.162c-1.259-.828-2.483-1.707-3.661-2.645a21.252,21.252,0,0,1-3.251-2.915c-2.242-2.718-.055-5.852,1.658-8.252.667,2.677,3.008,4.72,5.157,6.342a42.23,42.23,0,0,0,9.178,5.242,43.319,43.319,0,0,0,5.029,1.751,15.689,15.689,0,0,0,5.017.851c.107-.006.2-.04.308-.052C581.053,425.436,580.306,427.776,578.426,428.824Zm6.643-12.492a10.919,10.919,0,0,1-.919,3.787,3.5,3.5,0,0,1-3.352,1.887,17.257,17.257,0,0,1-4.394-.876,39.7,39.7,0,0,1-4.456-1.563,41.369,41.369,0,0,1-8.086-4.538c-2.327-1.671-5.185-3.79-5.532-6.869-.277-2.462,1.641-4.125,2.87-6.076a8.6,8.6,0,0,0,.612,1.04,28.955,28.955,0,0,0,4.612,5.088,32.232,32.232,0,0,0,11.839,6.625,25.03,25.03,0,0,0,6.845,1.241l.044,0A.729.729,0,0,0,585.069,416.332Zm5.012-5.42c-.619.787-1.068,1.7-1.69,2.482a3.773,3.773,0,0,1-3.152,1.53c-.265,0-.534-.033-.8-.049a.728.728,0,0,0,.206-.426,9.558,9.558,0,0,0-.762-5.732.691.691,0,0,0,.14-.193c.445-1,.914-1.989,1.391-2.972.426.378.854.752,1.267,1.143,1.228,1.159,2.368,2.4,3.6,3.562a.925.925,0,0,0,.25.162A5.437,5.437,0,0,0,590.081,410.912Zm42.769-25.618a30.327,30.327,0,0,1-2.048,4.149.744.744,0,0,0-.668.354A41.963,41.963,0,0,1,608.5,406.52a40.048,40.048,0,0,1-7.913,1.824c-1.917.238-3.851.081-5.768.289a8.182,8.182,0,0,0-3.156.934.879.879,0,0,0-.194-.5,31.32,31.32,0,0,0-5.3-5.022,93.206,93.206,0,0,1,14.264-20.792c1.689-1.851,3.416-3.665,5.22-5.4.9-.867,1.8-1.758,2.738-2.609a6.812,6.812,0,0,0,1.8,1.026,7.357,7.357,0,0,0,6.347-.523,4.991,4.991,0,0,0,2.172-2.534,2.306,2.306,0,0,0-.958-2.888,5.625,5.625,0,0,0-3.753-.153,11.277,11.277,0,0,0-3.675,1.707c-.643.438-1.265.912-1.874,1.4a5.636,5.636,0,0,1-.86-1.46,7.124,7.124,0,0,1,.755-6.7c.463-.645-.51-1.284-1.048-.809-2.458,2.178-5.588,4.842-9.126,3.857a3.854,3.854,0,0,1-2.909-3.256,8.354,8.354,0,0,1,.665-3.906,7.469,7.469,0,0,0,.787-1.792c.193-.675-.868-1.169-1.168-.492-.167.376-.336.757-.5,1.14a6.939,6.939,0,0,1-7.886,3.153c0-.076,0-.152,0-.227A18.052,18.052,0,0,0,584.07,352.4a.5.5,0,0,0-.842,0,8.233,8.233,0,0,0,.043,9.751,6.722,6.722,0,0,0,2.484,2.008,31.027,31.027,0,0,1-1.517,7.829,91.167,91.167,0,0,1-9.062,18.647c-1.022,1.689-2.089,3.349-3.182,4.991a16.379,16.379,0,0,0-8.385-1.488.393.393,0,0,0-.053.017,13.544,13.544,0,0,0-1.843-4.927,55.139,55.139,0,0,1-3.157-6.077,38.674,38.674,0,0,1,1.259-32.115,40.911,40.911,0,0,1,16.434-17.857,39.631,39.631,0,0,1,28.635-3.661,42.732,42.732,0,0,1,12.517,5.434,64.943,64.943,0,0,1,5.613,3.974,44.814,44.814,0,0,1,4.792,4.18c5.133,5.376,7.77,12.7,8.465,20.01A47.242,47.242,0,0,1,632.85,385.294Zm-23.335-11.023a22.021,22.021,0,0,1,1.93-1.461,9.846,9.846,0,0,1,3.355-1.525c.99-.208,3.121-.393,2.856,1.189-.346,2.059-3.032,2.958-4.824,2.915A5.889,5.889,0,0,1,609.515,374.271ZM585.8,362.358c-2.643-1.788-3.914-6.021-2.2-8.807A19.171,19.171,0,0,1,585.8,362.358Zm24.3-26.289a28.365,28.365,0,0,0-7.769-2.567,31.335,31.335,0,0,0-16.369,1.428,34.02,34.02,0,0,0-12.7,8.5,38.943,38.943,0,0,0-8.08,12.951,45.582,45.582,0,0,0-3.2,17.345c.055,1.977.214,5.674,3.154,5.177a3.32,3.32,0,0,0,2.439-2.017,9.132,9.132,0,0,0,.189-4.234c-.374-5.158,1.426-10.6,3.608-15.205.448-.945.938-1.872,1.44-2.79a.617.617,0,0,0,.449-.284c2.8-4.233,7.051-7.793,12.164-8.667,1.948-.333,4.471-.014,6.011-1.526.893-.876.7-1.85.6-2.973-.108-1.173,1.231-1.52,2.163-1.642a27.051,27.051,0,0,1,4.446-.037c1.6.061,3.189.178,4.773.368,1.62.194,3.224.507,4.818.853,1.147.25,2.771,1.009,3.874.306a2.223,2.223,0,0,0,.724-2.635A5.013,5.013,0,0,0,610.1,336.068Zm.725,3.953a16.959,16.959,0,0,1-1.957-.49q-1.165-.277-2.345-.487c-1.444-.259-2.9-.471-4.36-.635s-2.9-.261-4.359-.295a23.171,23.171,0,0,0-3.971.11,4.412,4.412,0,0,0-2.511,1.1,2.4,2.4,0,0,0-.632,1.153,5.964,5.964,0,0,0,.111,1.745c.126,2.007-3.39,1.857-4.671,2a18.726,18.726,0,0,0-11.87,6.649,23.429,23.429,0,0,0-2.092,2.858.551.551,0,0,0-.045.548,35.59,35.59,0,0,0-5.4,12.833,25.587,25.587,0,0,0-.329,7c.077,1.17.052,2.8-1.288,3.26-1.285.442-1.492-1.25-1.562-2.124a43.147,43.147,0,0,1,2.193-16.461,37.545,37.545,0,0,1,7.049-12.959,31.837,31.837,0,0,1,26.472-11.476,28.281,28.281,0,0,1,7.673,1.691,21.992,21.992,0,0,1,3.479,1.61,2.481,2.481,0,0,1,1.3,1.348A.758.758,0,0,1,610.821,340.021Z" transform="translate(-550.068 -326.58)" fill="#39262b"/>
      <g id="Group_548" data-name="Group 548" transform="translate(51.536 50.805)">
        <g id="Group_547" data-name="Group 547">
          <path id="Path_238" data-name="Path 238" d="M619.522,369.769a27.829,27.829,0,0,1-16.386,18.588,79.228,79.228,0,0,1-8.734,2.6,1.139,1.139,0,0,0,.605,2.194c5.062-1.1,10.149-2.6,14.336-5.759a28.848,28.848,0,0,0,8.594-10.17,27.458,27.458,0,0,0,2.343-7.24c.089-.49-.631-.706-.759-.208Z" transform="translate(-593.591 -369.486)" fill="#39262b"/>
        </g>
      </g>
      <g id="Group_550" data-name="Group 550" transform="translate(48.255 74.417)">
        <g id="Group_549" data-name="Group 549">
          <path id="Path_239" data-name="Path 239" d="M591.566,390.972a.773.773,0,0,0,0-1.545.773.773,0,0,0,0,1.545Z" transform="translate(-590.82 -389.427)" fill="#39262b"/>
        </g>
      </g>
      <g id="Group_552" data-name="Group 552" transform="translate(65.534 13.991)">
        <g id="Group_551" data-name="Group 551">
          <path id="Path_240" data-name="Path 240" d="M605.6,339.5c.246.217.5.432.734.658a9.58,9.58,0,0,0,.848.765.728.728,0,0,0,.564.074.756.756,0,0,0,.38-.262.728.728,0,0,0-.057-.959,6.544,6.544,0,0,0-.614-.47l-.495-.365.135.1-.579-.461a.7.7,0,0,0-.458-.189.665.665,0,0,0-.458.189.647.647,0,0,0,0,.915Z" transform="translate(-605.413 -338.396)" fill="#39262b"/>
        </g>
      </g>
      <g id="Group_554" data-name="Group 554" transform="translate(67.824 17.46)">
        <g id="Group_553" data-name="Group 553">
          <path id="Path_241" data-name="Path 241" d="M607.967,342.612a.643.643,0,0,0,0-1.286.643.643,0,0,0,0,1.286Z" transform="translate(-607.346 -341.326)" fill="#39262b"/>
        </g>
      </g>
      <g id="Group_556" data-name="Group 556" transform="translate(10.511 80.516)">
        <g id="Group_555" data-name="Group 555">
          <path id="Path_242" data-name="Path 242" d="M558.986,395.165a19.119,19.119,0,0,0,10.85,8.939c.817.257,1.088-.938.344-1.249a25.518,25.518,0,0,1-5.879-3.327,28.294,28.294,0,0,1-4.72-4.823c-.278-.349-.786.1-.6.461Z" transform="translate(-558.944 -394.578)" fill="#39262b"/>
        </g>
      </g>
      <g id="Group_558" data-name="Group 558" transform="translate(26.32 90.917)">
        <g id="Group_557" data-name="Group 557">
          <path id="Path_243" data-name="Path 243" d="M572.314,404.088c-.006.083-.012.166-.019.249a.569.569,0,0,0,.064.287.671.671,0,0,0,.393.393.569.569,0,0,0,.287.064l.2-.026a.749.749,0,0,0,.329-.192l.116-.15a.736.736,0,0,0,.1-.375c-.006-.083-.012-.166-.019-.249a.7.7,0,0,0-.446-.663.555.555,0,0,0-.279-.063l-.193.026a.73.73,0,0,0-.321.187l-.114.147a.729.729,0,0,0-.1.366Z" transform="translate(-572.295 -403.362)" fill="#39262b"/>
        </g>
      </g>
      <g id="Group_560" data-name="Group 560" transform="translate(6.309 87.136)">
        <g id="Group_559" data-name="Group 559">
          <path id="Path_244" data-name="Path 244" d="M555.466,400.807a27,27,0,0,0,5.772,5.87,23.872,23.872,0,0,0,3.467,2.178,14.971,14.971,0,0,0,4.019,1.523c.776.135,1.428-1,.585-1.387-1.206-.551-2.477-.945-3.679-1.51a30.464,30.464,0,0,1-3.506-1.9,26.389,26.389,0,0,1-6-5.282c-.3-.362-.944.123-.662.511Z" transform="translate(-555.396 -400.168)" fill="#39262b"/>
        </g>
      </g>
      <g id="Group_562" data-name="Group 562" transform="translate(23.54 97.056)">
        <g id="Group_561" data-name="Group 561">
          <path id="Path_245" data-name="Path 245" d="M570.98,410.683a1.069,1.069,0,0,0,0-2.137,1.069,1.069,0,0,0,0,2.137Z" transform="translate(-569.947 -408.546)" fill="#39262b"/>
        </g>
      </g>
      <g id="Group_564" data-name="Group 564" transform="translate(3.263 94.688)">
        <g id="Group_563" data-name="Group 563">
          <path id="Path_246" data-name="Path 246" d="M552.954,407.221a65.491,65.491,0,0,0,5.3,4.449,49.752,49.752,0,0,0,5.8,3.9.741.741,0,0,0,.747-1.278c-1.925-1.184-3.879-2.317-5.754-3.583-1.893-1.278-3.732-2.645-5.519-4.067-.4-.317-.967.21-.577.577Z" transform="translate(-552.823 -406.547)" fill="#39262b"/>
        </g>
      </g>
      <g id="Group_566" data-name="Group 566" transform="translate(18.016 105.011)">
        <g id="Group_565" data-name="Group 565">
          <path id="Path_247" data-name="Path 247" d="M565.855,416.448a.592.592,0,0,0,0-1.184.592.592,0,0,0,0,1.184Z" transform="translate(-565.283 -415.264)" fill="#39262b"/>
        </g>
      </g>
      <g id="Group_568" data-name="Group 568" transform="translate(12.378 56.764)">
        <g id="Group_567" data-name="Group 567">
          <path id="Path_248" data-name="Path 248" d="M562.369,377.27a6.366,6.366,0,0,1-.33-.565c-.053-.1-.1-.208-.152-.315l-.036-.08c.017.04.015.036-.006-.013s-.038-.095-.056-.142a6.414,6.414,0,0,1-.34-1.285.478.478,0,0,0-.586-.333.489.489,0,0,0-.333.586,6.742,6.742,0,0,0,1.094,2.58.439.439,0,0,0,.589.154.434.434,0,0,0,.155-.587Z" transform="translate(-560.52 -374.519)" fill="#39262b"/>
        </g>
      </g>
      <g id="Group_570" data-name="Group 570" transform="translate(8.264 45.128)">
        <g id="Group_569" data-name="Group 569">
          <path id="Path_249" data-name="Path 249" d="M557.986,367.177a3.858,3.858,0,0,0-.187-2.2.39.39,0,0,0-.467-.265.384.384,0,0,0-.265.466,3.564,3.564,0,0,1,.162.475c.021.081.039.162.054.245.007.036.012.071.018.107s.007.047,0,.007c0,.018,0,.036.006.053a3.28,3.28,0,0,1,.018.483c0,.084-.008.167-.017.25,0,0-.017.117,0,.045-.007.047-.015.095-.024.142a.374.374,0,0,0,.256.45.369.369,0,0,0,.449-.255Z" transform="translate(-557.046 -364.692)" fill="#39262b"/>
        </g>
      </g>
      <g id="Group_572" data-name="Group 572" transform="translate(7.992 38.406)">
        <g id="Group_571" data-name="Group 571">
          <path id="Path_250" data-name="Path 250" d="M557.192,359.792a.389.389,0,0,0,0-.777.389.389,0,0,0,0,.777Z" transform="translate(-556.817 -359.015)" fill="#39262b"/>
        </g>
      </g>
      <g id="Group_574" data-name="Group 574" transform="translate(8.939 8.813)">
        <g id="Group_573" data-name="Group 573">
          <path id="Path_251" data-name="Path 251" d="M558.472,360.328a48.813,48.813,0,0,1,11.7-20.869,44.16,44.16,0,0,1,5.172-4.659c.4-.31.037-1-.411-.7a40.983,40.983,0,0,0-15.361,19.077,38.14,38.14,0,0,0-1.95,6.92c-.1.549.7.789.847.234Z" transform="translate(-557.616 -334.023)" fill="#39262b"/>
        </g>
      </g>
      <g id="Group_576" data-name="Group 576" transform="translate(32.853 5.67)">
        <g id="Group_575" data-name="Group 575">
          <path id="Path_252" data-name="Path 252" d="M578.5,332.8a.717.717,0,0,0,0-1.434.717.717,0,0,0,0,1.434Z" transform="translate(-577.813 -331.369)" fill="#39262b"/>
        </g>
      </g>
      <g id="Group_578" data-name="Group 578" transform="translate(67.806 26.543)">
        <g id="Group_577" data-name="Group 577">
          <path id="Path_253" data-name="Path 253" d="M607.427,349.571a12.381,12.381,0,0,1,1.041,1.61,11.46,11.46,0,0,1,.768,1.719.536.536,0,0,0,.643.365.527.527,0,0,0,.365-.643,9.436,9.436,0,0,0-2.34-3.53.338.338,0,0,0-.477.478Z" transform="translate(-607.331 -348.997)" fill="#39262b"/>
        </g>
      </g>
      <g id="Group_580" data-name="Group 580" transform="translate(72.067 35.414)">
        <g id="Group_579" data-name="Group 579">
          <path id="Path_254" data-name="Path 254" d="M611.546,357.765a.639.639,0,0,0,0-1.276.639.639,0,0,0,0,1.276Z" transform="translate(-610.929 -356.488)" fill="#39262b"/>
        </g>
      </g>
      <g id="Group_582" data-name="Group 582" transform="translate(81.44 27.088)">
        <g id="Group_581" data-name="Group 581">
          <path id="Path_255" data-name="Path 255" d="M618.863,350.068c.077.251.155.5.232.752a.522.522,0,0,0,.232.3.383.383,0,0,0,.187.06.376.376,0,0,0,.2-.009.506.506,0,0,0,.3-.232.492.492,0,0,0,.051-.388c-.092-.246-.185-.494-.276-.74a.363.363,0,0,0-.086-.163.379.379,0,0,0-.135-.124.482.482,0,0,0-.707.545Z" transform="translate(-618.845 -349.457)" fill="#39262b"/>
        </g>
      </g>
      <g id="Group_584" data-name="Group 584" transform="translate(82.448 34.076)">
        <g id="Group_583" data-name="Group 583">
          <path id="Path_256" data-name="Path 256" d="M620.4,356.819a.731.731,0,0,0,0-1.461.731.731,0,0,0,0,1.461Z" transform="translate(-619.696 -355.358)" fill="#39262b"/>
        </g>
      </g>
      <g id="Group_586" data-name="Group 586" transform="translate(26.57 65.955)">
        <g id="Group_585" data-name="Group 585">
          <path id="Path_257" data-name="Path 257" d="M575.808,382.537c-.51.868-1.053,1.712-1.6,2.558q-.394.613-.795,1.221a8.815,8.815,0,0,0-.821,1.326.818.818,0,0,0,.284,1.082.809.809,0,0,0,1.082-.284,8.931,8.931,0,0,0,.724-1.383c.212-.438.429-.873.647-1.308.45-.9.9-1.8,1.386-2.681a.527.527,0,0,0-.911-.53Z" transform="translate(-572.506 -382.281)" fill="#39262b"/>
        </g>
      </g>
      <g id="Group_588" data-name="Group 588" transform="translate(29.137 68.306)">
        <g id="Group_587" data-name="Group 587">
          <path id="Path_258" data-name="Path 258" d="M577.8,384.381c-.576.694-1.107,1.424-1.623,2.164-.252.362-.484.735-.724,1.106a9.824,9.824,0,0,0-.7,1.163.658.658,0,0,0,.228.874.645.645,0,0,0,.874-.228c.18-.39.314-.8.484-1.2s.384-.794.594-1.18a16.33,16.33,0,0,1,1.42-2.146.408.408,0,0,0,0-.557.4.4,0,0,0-.555,0Z" transform="translate(-574.674 -384.267)" fill="#39262b"/>
        </g>
      </g>
      <g id="Group_590" data-name="Group 590" transform="translate(30.929 70.726)">
        <g id="Group_589" data-name="Group 589">
          <path id="Path_259" data-name="Path 259" d="M578.859,386.527c-.407.67-.809,1.343-1.233,2s-.882,1.3-1.342,1.938a.689.689,0,0,0,1.19.7c.33-.715.66-1.426,1.025-2.123s.752-1.376,1.133-2.06a.449.449,0,0,0-.774-.452Z" transform="translate(-576.187 -386.31)" fill="#39262b"/>
        </g>
      </g>
      <g id="Group_592" data-name="Group 592" transform="translate(36.578 74.939)">
        <g id="Group_591" data-name="Group 591">
          <path id="Path_260" data-name="Path 260" d="M582.979,390.117l-.909,1.439c-.147.232-.3.461-.454.687l-.236.337-.068.1c-.041.06-.045.065-.011.012l-.154.169a.675.675,0,1,0,1.128.657c.026-.071.049-.143.078-.213-.047.112.039-.068.05-.089l.2-.391c.127-.244.259-.482.4-.72l.853-1.473a.509.509,0,1,0-.879-.513Z" transform="translate(-580.958 -389.868)" fill="#39262b"/>
        </g>
      </g>
      <g id="Group_594" data-name="Group 594" transform="translate(38.132 77.544)">
        <g id="Group_593" data-name="Group 593">
          <path id="Path_261" data-name="Path 261" d="M584.627,392.169q-.5.463-1.01.928c-.167.153-.337.3-.51.444l-.122.1-.077.064c-.06.052.01.006.01-.006a.722.722,0,0,1-.131.081.69.69,0,0,0-.082.05c-.055.044.131-.051.025-.009a.651.651,0,0,0-.436.436.626.626,0,0,0,.768.769.646.646,0,0,0,.436-.436.636.636,0,0,1,.025-.065l-.025.072.03-.05a1.151,1.151,0,0,0,.079-.133c.026-.059-.072.084,0-.008l.051-.062.1-.123c.148-.18.3-.358.452-.53l.919-1.019a.362.362,0,0,0,0-.5.367.367,0,0,0-.507,0Z" transform="translate(-582.271 -392.068)" fill="#39262b"/>
        </g>
      </g>
      <g id="Group_596" data-name="Group 596" transform="translate(18.636 64.562)">
        <g id="Group_595" data-name="Group 595">
          <path id="Path_262" data-name="Path 262" d="M567.175,381.315c-.277.569-.525,1.158-.744,1.752s-.371,1.179-.593,1.756a.623.623,0,1,0,1.225.166,5.675,5.675,0,0,1,.27-1.64,10.684,10.684,0,0,1,.583-1.6.444.444,0,0,0-.154-.588.434.434,0,0,0-.587.155Z" transform="translate(-565.805 -381.104)" fill="#39262b"/>
        </g>
      </g>
      <g id="Group_598" data-name="Group 598" transform="translate(16.325 64.145)">
        <g id="Group_597" data-name="Group 597">
          <path id="Path_263" data-name="Path 263" d="M564.781,380.986q-.2.806-.393,1.614c-.065.269-.144.534-.22.8-.036.123-.075.244-.121.364-.053.14-.129.259-.174.416a.537.537,0,0,0,1.035.285,1.8,1.8,0,0,0,.033-.3,1.187,1.187,0,0,1-.007-.219c.018-.108.013-.219.028-.328.04-.276.078-.552.129-.825l.305-1.638a.329.329,0,0,0-.223-.393.325.325,0,0,0-.393.224Z" transform="translate(-563.854 -380.752)" fill="#39262b"/>
        </g>
      </g>
      <g id="Group_600" data-name="Group 600" transform="translate(14.34 64.332)">
        <g id="Group_599" data-name="Group 599">
          <path id="Path_264" data-name="Path 264" d="M562.3,381.3q-.018.623-.033,1.247c-.012.417-.052.831-.086,1.247a.509.509,0,1,0,1.018,0c-.034-.416-.076-.83-.086-1.247s-.022-.831-.033-1.247a.39.39,0,0,0-.779,0Z" transform="translate(-562.178 -380.91)" fill="#39262b"/>
        </g>
      </g>
    </g>
    <g id="Group_603" data-name="Group 603" transform="translate(541.242 361.841)">
      <g id="Group_602" data-name="Group 602">
        <path id="Path_265" data-name="Path 265" d="M549.591,355.407c-1.035-.294-2.095-.54-3.152-.734-.525-.1-1.053-.176-1.581-.247-.332-.045-.664-.089-1-.124-.124-.013-.25-.027-.375-.037-.18-.018-.167-.014.04.012l-.236-.04a1.619,1.619,0,0,0-2.049,1.562,1.638,1.638,0,0,0,2.05,1.561c.117-.032.234-.07.354-.093.081-.014.161-.026.243-.037-.172.022-.2.027-.088.013.251-.027.5-.058.751-.082.52-.047,1.04-.07,1.563-.071a15.32,15.32,0,0,1,2.942.263,1.008,1.008,0,1,0,.534-1.944Z" transform="translate(-541.242 -354.198)" fill="#39262b"/>
      </g>
    </g>
    <g id="Group_605" data-name="Group 605" transform="translate(543.655 345.949)">
      <g id="Group_604" data-name="Group 604">
        <path id="Path_266" data-name="Path 266" d="M551.3,343.542a15.092,15.092,0,0,1-1.563-.36c-.275-.08-.542-.183-.809-.289-.065-.026-.372-.142-.079-.031-.131-.05-.259-.114-.387-.173a12.255,12.255,0,0,1-1.413-.745c-.211-.134-.414-.283-.616-.431-.058-.043-.116-.085-.173-.129.264.2.207.162-.172-.131-.115-.085-.232-.168-.347-.255a1.657,1.657,0,0,0-1.269-.166,1.647,1.647,0,0,0-.393,3.01,15.827,15.827,0,0,0,1.833.8c.5.193.988.386,1.5.542a20.734,20.734,0,0,0,3.24.714,1.346,1.346,0,0,0,.941-.123,1.22,1.22,0,0,0-.291-2.23Z" transform="translate(-543.28 -340.777)" fill="#39262b"/>
      </g>
    </g>
    <g id="Group_607" data-name="Group 607" transform="translate(552.102 328.402)">
      <g id="Group_606" data-name="Group 606">
        <path id="Path_267" data-name="Path 267" d="M558.332,334.187c-.841-1.237-1.66-2.478-2.445-3.752-.391-.635-.781-1.271-1.165-1.91a11.568,11.568,0,0,0-1.436-2.084,1.686,1.686,0,0,0-2.644,2.04,11.61,11.61,0,0,0,1.64,1.927c.517.536,1.029,1.079,1.539,1.621,1.026,1.088,2.01,2.2,2.986,3.336.714.829,2.146-.263,1.525-1.177Z" transform="translate(-550.413 -325.959)" fill="#39262b"/>
      </g>
    </g>
    <g id="Group_609" data-name="Group 609" transform="translate(564.595 318.213)">
      <g id="Group_608" data-name="Group 608">
        <path id="Path_268" data-name="Path 268" d="M566.726,325.846a12.5,12.5,0,0,1-.972-1.833c-.263-.573-.549-1.134-.789-1.719a18.246,18.246,0,0,1-1.145-3.889,1.46,1.46,0,1,0-2.671,1.126c.642,1.236,1.3,2.472,2.041,3.649a19.17,19.17,0,0,0,1.236,1.776c.442.549.92,1.062,1.356,1.616.419.536,1.324-.162.944-.727Z" transform="translate(-560.964 -317.353)" fill="#39262b"/>
      </g>
    </g>
    <g id="Group_611" data-name="Group 611" transform="translate(581.824 313.171)">
      <g id="Group_610" data-name="Group 610">
        <path id="Path_269" data-name="Path 269" d="M578.641,321.785a40.016,40.016,0,0,1-.3-7.274,1.415,1.415,0,1,0-2.83,0,28.054,28.054,0,0,0,.508,4.019c.235,1.259.59,2.488.906,3.728a.888.888,0,1,0,1.712-.473Z" transform="translate(-575.514 -313.095)" fill="#39262b"/>
      </g>
    </g>
    <g id="Group_613" data-name="Group 613" transform="translate(597.432 312.684)">
      <g id="Group_612" data-name="Group 612">
        <path id="Path_270" data-name="Path 270" d="M591.185,318.912q.819-2.224,1.639-4.448a1.417,1.417,0,0,0-.989-1.741,1.444,1.444,0,0,0-1.741.989l-1.353,4.527a1.281,1.281,0,0,0,.884,1.559,1.3,1.3,0,0,0,1.559-.887Z" transform="translate(-588.695 -312.684)" fill="#39262b"/>
      </g>
    </g>
    <g id="Group_615" data-name="Group 615" transform="translate(612.934 314.789)">
      <g id="Group_614" data-name="Group 614">
        <path id="Path_271" data-name="Path 271" d="M603.2,321.927c.6-1.97,1.359-3.889,2.056-5.828a1.3,1.3,0,1,0-2.515-.694c-.3,2.049-.535,4.108-.932,6.138a.722.722,0,1,0,1.391.384Z" transform="translate(-601.787 -314.462)" fill="#39262b"/>
      </g>
    </g>
    <g id="Group_617" data-name="Group 617" transform="translate(625.219 322.259)">
      <g id="Group_616" data-name="Group 616">
        <path id="Path_272" data-name="Path 272" d="M613.4,330.15a21.7,21.7,0,0,0,3.736-3.248,17.822,17.822,0,0,0,1.573-2.051,9.557,9.557,0,0,0,1.256-2.376,1.366,1.366,0,0,0-2.485-1.048,7.357,7.357,0,0,0-.348.76c-.031.073-.062.147-.091.22,0-.006-.135.323-.069.169s-.063.141-.076.171c-.041.091-.083.184-.126.275-.077.163-.155.326-.237.488a21.633,21.633,0,0,1-1.177,2.019,15.183,15.183,0,0,1-2.943,3.343c-.7.595.226,1.807.986,1.279Z" transform="translate(-612.162 -320.771)" fill="#39262b"/>
      </g>
    </g>
    <g id="Group_619" data-name="Group 619" transform="translate(634.889 333.7)">
      <g id="Group_618" data-name="Group 618">
        <path id="Path_273" data-name="Path 273" d="M621.857,335.937a9.865,9.865,0,0,0,5.6-3.241,1.339,1.339,0,0,0-.135-1.988,1.264,1.264,0,0,0-.984-.262,1.383,1.383,0,0,0-.973.636c-.14.187.145-.179.042-.051-.033.04-.065.082-.1.122-.075.091-.152.18-.23.268-.156.174-.321.342-.491.5-.085.08-.172.159-.26.236l-.149.125c-.124.109.022-.02.071-.051-.208.133-.4.289-.613.419s-.4.239-.612.347c-.1.053-.21.105-.316.154l-.142.064c-.2.091.185-.071.04-.018a9.748,9.748,0,0,1-1.383.418,1.211,1.211,0,0,0-.839,1.479,1.236,1.236,0,0,0,1.48.84Z" transform="translate(-620.329 -330.432)" fill="#39262b"/>
      </g>
    </g>
    <g id="Group_621" data-name="Group 621" transform="translate(642.93 346.74)">
      <g id="Group_620" data-name="Group 620">
        <path id="Path_274" data-name="Path 274" d="M628.539,346.667a18.37,18.37,0,0,0,3.748-.977,14.833,14.833,0,0,0,3.626-1.848,1.286,1.286,0,1,0-1.3-2.221,28.352,28.352,0,0,1-3.273,1.827l-.168.073c.1-.043.085-.036-.05.02-.153.062-.306.122-.459.18q-.434.163-.874.3a18.7,18.7,0,0,1-1.845.483,1.126,1.126,0,0,0-.781,1.377,1.15,1.15,0,0,0,1.375.783Z" transform="translate(-627.12 -341.445)" fill="#39262b"/>
      </g>
    </g>
    <g id="Group_623" data-name="Group 623" transform="translate(646.939 362.085)">
      <g id="Group_622" data-name="Group 622">
        <path id="Path_275" data-name="Path 275" d="M631.314,356.88a10.122,10.122,0,0,0,3.344.6,8.549,8.549,0,0,0,3.577-.657,1.3,1.3,0,0,0-1-2.367c-.481.136-.941.321-1.43.431-.243.054-.487.1-.733.134.224-.031,0,0-.1.006-.124.012-.249.02-.374.027a10.607,10.607,0,0,1-1.437-.039c-.278-.023.137.03-.116-.014-.141-.024-.282-.047-.422-.076-.244-.051-.485-.112-.726-.181a1.122,1.122,0,0,0-1.365.776,1.14,1.14,0,0,0,.776,1.365Z" transform="translate(-630.506 -354.404)" fill="#39262b"/>
      </g>
    </g>
    <g id="Group_625" data-name="Group 625" transform="translate(647.105 376.064)">
      <g id="Group_624" data-name="Group 624">
        <path id="Path_276" data-name="Path 276" d="M631.59,368.1c1.01.11,1.866.2,2.823.351,1.056.165,2.1.386,3.162.527a1.327,1.327,0,0,0,.942-.39,1.333,1.333,0,0,0-.942-2.275c-.512-.015-1.015.026-1.525.03-.489,0-.978-.008-1.467-.012-1-.008-1.994-.064-2.992-.118a.95.95,0,0,0-.944.944.971.971,0,0,0,.944.944Z" transform="translate(-630.646 -366.21)" fill="#39262b"/>
      </g>
    </g>
    <g id="Group_627" data-name="Group 627" transform="translate(642.042 388.794)">
      <g id="Group_626" data-name="Group 626">
        <path id="Path_277" data-name="Path 277" d="M626.681,378.761a9.041,9.041,0,0,0,2.163,1.93,8.212,8.212,0,0,0,2.688,1.154,1.288,1.288,0,0,0,1.6-1.069,1.219,1.219,0,0,0-.253-.95,1.329,1.329,0,0,0-1.01-.507l-.207-.024.339.045a7.316,7.316,0,0,1-1.2-.265c-.188-.059-.37-.143-.558-.2.046.014.226.1.083.034-.053-.024-.108-.047-.16-.073-.1-.045-.191-.091-.284-.141a4.871,4.871,0,0,1-.51-.307c-.085-.058-.167-.134-.256-.184.047.027.165.131.053.04l-.109-.089a7.285,7.285,0,0,1-.894-.889,1.054,1.054,0,0,0-1.8.746,1.245,1.245,0,0,0,.31.747Z" transform="translate(-626.37 -376.961)" fill="#39262b"/>
      </g>
    </g>
    <g id="Group_629" data-name="Group 629" transform="translate(634.732 399.974)">
      <g id="Group_628" data-name="Group 628">
        <path id="Path_278" data-name="Path 278" d="M620.314,387.7c.472.761,1.028,1.462,1.532,2.2a14.432,14.432,0,0,0,1.851,2.2,1.2,1.2,0,0,0,1.8-.122,1.142,1.142,0,0,0,.237-.888,1.236,1.236,0,0,0-.574-.879c-.092-.066-.185-.134-.276-.2l-.109-.082c-.162-.122.155.123.044.033-.162-.13-.326-.26-.484-.394-.335-.283-.68-.555-1.007-.849a6.167,6.167,0,0,1-.436-.441q-.1-.115-.206-.231c-.038-.043-.075-.086-.111-.131-.058-.071-.09-.1-.011-.014a7.88,7.88,0,0,1-.758-1.074.862.862,0,0,0-1.487.87Z" transform="translate(-620.196 -386.402)" fill="#39262b"/>
      </g>
    </g>
    <g id="Group_631" data-name="Group 631" transform="translate(625.461 411.67)">
      <g id="Group_630" data-name="Group 630">
        <path id="Path_279" data-name="Path 279" d="M612.509,398.006c.7,1.433,1.369,2.881,2.03,4.334-.045-.108-.091-.215-.136-.324.046.109.087.219.128.33a1.586,1.586,0,0,0,.642.835,1.343,1.343,0,0,0,1.243.07,1.389,1.389,0,0,0,.668-1.981c-.482-.7-.893-1.46-1.33-2.192s-.848-1.483-1.263-2.23a1.159,1.159,0,0,0-1.569-.412,1.176,1.176,0,0,0-.412,1.57Z" transform="translate(-612.367 -396.28)" fill="#39262b"/>
      </g>
    </g>
  </g>
</svg>
