<svg xmlns="http://www.w3.org/2000/svg" width="114.113" height="104.839" viewBox="0 0 114.113 104.839">
  <g id="Group_1262" data-name="Group 1262" transform="translate(-45.076 -225.342)">
    <g id="Group_317" data-name="Group 317" transform="translate(45.076 225.342)">
      <g id="Group_316" data-name="Group 316">
        <path id="Path_74" data-name="Path 74" d="M99.321,263.594C48.265,233.571,32.095,286,58.487,304.828c16.518,11.784,54.849,21.271,71.155,24.256,0,0,25.7-49.277,27.57-69.481C160.191,227.324,111.232,202.589,99.321,263.594Z" transform="translate(-44.721 -225.005)" fill="#fff"/>
        <path id="Path_75" data-name="Path 75" d="M99.6,264.053a70.843,70.843,0,0,0-20.178-7.638,35.71,35.71,0,0,0-10.607-.508,25.221,25.221,0,0,0-9.89,3.211,21.922,21.922,0,0,0-7.385,7.159,25.492,25.492,0,0,0-3.605,9.7A29.815,29.815,0,0,0,51.887,296.1a29.141,29.141,0,0,0,6.932,7.824,62.685,62.685,0,0,0,9.117,5.66,143.773,143.773,0,0,0,20.024,8.388c6.852,2.4,13.844,4.392,20.885,6.172,7.031,1.812,14.152,3.3,21.29,4.53l-.81.4c6.417-13.113,12.5-26.419,17.961-39.928a186.713,186.713,0,0,0,7.095-20.571,49.033,49.033,0,0,0,1.806-10.453,29.63,29.63,0,0,0-1.488-10.282,30.661,30.661,0,0,0-12.527-16.276,24.2,24.2,0,0,0-9.678-3.636,20.482,20.482,0,0,0-10.212,1.174,25.3,25.3,0,0,0-8.706,5.8,39,39,0,0,0-6.36,8.619,76.876,76.876,0,0,0-7.4,20.438.145.145,0,0,1-.172.109Zm-.029-.343a73.734,73.734,0,0,1,6.385-20.857,40.649,40.649,0,0,1,6.29-9.226,26.1,26.1,0,0,1,9.216-6.566,22.827,22.827,0,0,1,11.325-1.566,26.771,26.771,0,0,1,10.8,3.766A33.006,33.006,0,0,1,157.534,246.9a32.163,32.163,0,0,1,1.633,11.324,48.087,48.087,0,0,1-1.978,11.113,189.473,189.473,0,0,1-7.473,20.8c-5.66,13.557-12.127,26.713-19.049,39.637l-.013.022a.739.739,0,0,1-.8.374A410.481,410.481,0,0,1,87.646,318.9c-3.463-1.133-6.894-2.363-10.306-3.658s-6.8-2.671-10.109-4.247a63.605,63.605,0,0,1-9.6-5.492,30.025,30.025,0,0,1-7.72-8.17,31.2,31.2,0,0,1-4.4-21.755,27.861,27.861,0,0,1,4.1-10.548,24.146,24.146,0,0,1,8.243-7.767,25.594,25.594,0,0,1,10.788-3.19,37.378,37.378,0,0,1,11.08.909,52.912,52.912,0,0,1,10.412,3.586A75.352,75.352,0,0,1,99.575,263.71Z" transform="translate(-45.076 -225.342)"/>
      </g>
    </g>
    <g id="Group_358" data-name="Group 358" transform="translate(67.828 248.421)">
      <g id="Group_319" data-name="Group 319" transform="translate(0)">
        <g id="Group_318" data-name="Group 318">
          <path id="Path_76" data-name="Path 76" d="M97.731,267.589C63.811,247.645,53.072,282.478,70.6,294.98c10.974,7.829,36.439,14.133,47.274,16.117,0,0,17.076-32.741,18.316-46.161C138.174,243.5,105.647,227.06,97.731,267.589Z" transform="translate(-61.032 -241.552)" fill="#f5cc00"/>
          <path id="Path_77" data-name="Path 77" d="M98.016,268.048a48.166,48.166,0,0,0-13.431-4.873c-4.614-.863-9.513-.467-13.382,1.876A15.393,15.393,0,0,0,64.134,276a19.76,19.76,0,0,0,2.543,13.091,19.015,19.015,0,0,0,4.469,5.142,41.331,41.331,0,0,0,5.978,3.788,94.329,94.329,0,0,0,13.228,5.684c4.55,1.589,9.2,2.9,13.873,4.067,4.668,1.2,9.41,2.131,14.148,2.919l-.809.4c4.179-8.745,8.155-17.61,11.748-26.576a123.508,123.508,0,0,0,4.649-13.628,32.856,32.856,0,0,0,1.173-6.834,19.271,19.271,0,0,0-.965-6.656,19.974,19.974,0,0,0-8.085-10.585,14.229,14.229,0,0,0-12.841-1.679c-4.253,1.591-7.615,5.232-9.936,9.352a52.9,52.9,0,0,0-5.082,13.476.147.147,0,0,1-.176.107A.112.112,0,0,0,98.016,268.048Zm-.032-.349a47.415,47.415,0,0,1,4.068-13.887,27.194,27.194,0,0,1,4.167-6.23,17.465,17.465,0,0,1,6.209-4.491,15.558,15.558,0,0,1,7.71-1.107,18.23,18.23,0,0,1,7.363,2.523,22.327,22.327,0,0,1,9.5,11.944,21.835,21.835,0,0,1,1.11,7.7,31.883,31.883,0,0,1-1.343,7.494,126.4,126.4,0,0,1-5.028,13.859,285.5,285.5,0,0,1-12.837,26.285l-.02.035a.729.729,0,0,1-.791.361c-9.494-2.06-18.818-4.639-28.04-7.614a126.986,126.986,0,0,1-13.638-5.141,42.361,42.361,0,0,1-6.459-3.619,20.3,20.3,0,0,1-5.268-5.481,20.812,20.812,0,0,1-3-14.732,18.925,18.925,0,0,1,2.782-7.169,16.408,16.408,0,0,1,5.646-5.251,17.292,17.292,0,0,1,7.324-2.106,25.129,25.129,0,0,1,7.439.671,34.218,34.218,0,0,1,6.93,2.476A47.676,47.676,0,0,1,97.984,267.7Z" transform="translate(-61.389 -241.889)" fill="#f5cc00"/>
        </g>
      </g>
      <g id="Group_338" data-name="Group 338" transform="translate(5.014 1.458)">
        <g id="Group_321" data-name="Group 321" transform="translate(35.283 1.697)">
          <g id="Group_320" data-name="Group 320">
            <line id="Line_78" data-name="Line 78" y1="62.404" x2="9.352" transform="translate(0.191 0.118)" fill="#fff"/>
            <path id="Path_78" data-name="Path 78" d="M90.334,306.654a58.968,58.968,0,0,1,.234-7.94,65.181,65.181,0,0,1,1.089-7.813c.561-2.575,1.4-5.107,1.872-7.7a59.5,59.5,0,0,0,.861-7.847c.12-2.64.3-5.272.625-7.882.294-2.615.568-5.232.994-7.826a108.672,108.672,0,0,1,3.676-15.4.141.141,0,0,1,.179-.091.143.143,0,0,1,.1.131,108.675,108.675,0,0,1-1,15.8c-.351,2.607-.858,5.188-1.343,7.774-.452,2.591-1.054,5.159-1.713,7.72a59.466,59.466,0,0,0-1.478,7.755c-.3,2.614-.247,5.28-.466,7.905a65.476,65.476,0,0,1-1.248,7.789,58.916,58.916,0,0,1-2.1,7.66.142.142,0,0,1-.183.085A.144.144,0,0,1,90.334,306.654Z" transform="translate(-90.281 -244.152)" fill="#f5cc00"/>
          </g>
        </g>
        <g id="Group_323" data-name="Group 323" transform="translate(41.876)">
          <g id="Group_322" data-name="Group 322">
            <line id="Line_79" data-name="Line 79" y1="65.482" x2="10.399" transform="translate(0.163 0.12)" fill="#fff"/>
            <path id="Path_79" data-name="Path 79" d="M95.033,308.517a64.883,64.883,0,0,1,.367-8.333,72.119,72.119,0,0,1,1.22-8.2c.6-2.7,1.484-5.359,2-8.074a65.563,65.563,0,0,0,.992-8.234c.165-2.771.385-5.533.757-8.272.338-2.743.656-5.491,1.126-8.214a119.879,119.879,0,0,1,3.936-16.158.141.141,0,0,1,.179-.091.143.143,0,0,1,.1.134,119.9,119.9,0,0,1-1.264,16.583c-.4,2.735-.946,5.445-1.474,8.158-.5,2.718-1.142,5.413-1.844,8.1a65.582,65.582,0,0,0-1.608,8.135c-.349,2.742-.335,5.541-.6,8.3a71.809,71.809,0,0,1-1.379,8.173,65.157,65.157,0,0,1-2.233,8.036.142.142,0,0,1-.276-.042Z" transform="translate(-95.009 -242.935)" fill="#f5cc00"/>
          </g>
        </g>
        <g id="Group_325" data-name="Group 325" transform="translate(49.038 2.637)">
          <g id="Group_324" data-name="Group 324">
            <line id="Line_80" data-name="Line 80" y1="64.619" x2="10.321" transform="translate(0.163 0.118)" fill="#fff"/>
            <path id="Path_80" data-name="Path 80" d="M100.169,309.54a63.473,63.473,0,0,1,.357-8.226,70.541,70.541,0,0,1,1.211-8.089c.6-2.665,1.478-5.286,1.993-7.965a63.873,63.873,0,0,0,.982-8.127c.162-2.735.379-5.462.748-8.165.335-2.707.649-5.419,1.116-8.1a117.013,117.013,0,0,1,3.916-15.94.139.139,0,0,1,.179-.089.143.143,0,0,1,.1.134,117.02,117.02,0,0,1-1.244,16.368c-.392,2.7-.939,5.372-1.464,8.05-.492,2.682-1.135,5.34-1.833,7.99a63.606,63.606,0,0,0-1.6,8.028c-.346,2.706-.328,5.47-.587,8.19a70.246,70.246,0,0,1-1.37,8.064,63.68,63.68,0,0,1-2.223,7.928.142.142,0,0,1-.183.085A.144.144,0,0,1,100.169,309.54Z" transform="translate(-100.144 -244.825)" fill="#f5cc00"/>
          </g>
        </g>
        <g id="Group_327" data-name="Group 327" transform="translate(59.135 8.746)">
          <g id="Group_326" data-name="Group 326">
            <line id="Line_81" data-name="Line 81" y1="43.28" x2="6.371" transform="translate(0.344 0.111)" fill="#fff"/>
            <path id="Path_81" data-name="Path 81" d="M107.588,292.577a29.163,29.163,0,0,1-.138-5.548,30.8,30.8,0,0,1,.717-5.421c.441-1.777,1.155-3.515,1.5-5.307a28.257,28.257,0,0,0,.485-5.456,51.319,51.319,0,0,1,.245-5.491c.165-1.819.318-3.637.626-5.435a53.233,53.233,0,0,1,2.933-10.622.144.144,0,0,1,.278.04,53.228,53.228,0,0,1-.252,11.017c-.222,1.809-.6,3.6-.967,5.385a50.948,50.948,0,0,1-1.347,5.329,28.268,28.268,0,0,0-1.109,5.364c-.183,1.815,0,3.685-.089,5.513a30.95,30.95,0,0,1-.876,5.4,29.131,29.131,0,0,1-1.731,5.272.147.147,0,0,1-.278-.039Z" transform="translate(-107.383 -249.206)" fill="#f5cc00"/>
          </g>
        </g>
        <g id="Group_329" data-name="Group 329" transform="translate(0 20.55)">
          <g id="Group_328" data-name="Group 328">
            <line id="Line_82" data-name="Line 82" y1="26.525" x2="4.272" transform="translate(0.543 0.095)" fill="#fff"/>
            <path id="Path_82" data-name="Path 82" d="M65.388,284.266a12.1,12.1,0,0,1-.4-3.466,11.788,11.788,0,0,1,.457-3.328c.357-1.077.98-2.11,1.241-3.2a10.805,10.805,0,0,0,.223-3.365,19.56,19.56,0,0,1-.015-3.4,25.738,25.738,0,0,1,.364-3.343,20.954,20.954,0,0,1,2.406-6.416.151.151,0,0,1,.206-.052.156.156,0,0,1,.07.1,20.911,20.911,0,0,1,.271,6.847,25.693,25.693,0,0,1-.7,3.287,19.684,19.684,0,0,1-1.084,3.227,10.807,10.807,0,0,0-.844,3.265c-.095,1.119.172,2.3.173,3.43a11.853,11.853,0,0,1-.611,3.3,12.1,12.1,0,0,1-1.471,3.165.156.156,0,0,1-.216.039A.146.146,0,0,1,65.388,284.266Z" transform="translate(-64.984 -257.669)" fill="#f5cc00"/>
          </g>
        </g>
        <g id="Group_331" data-name="Group 331" transform="translate(6.639 18.876)">
          <g id="Group_330" data-name="Group 330">
            <line id="Line_83" data-name="Line 83" y1="34.125" x2="5.801" transform="translate(0.386 0.103)" fill="#fff"/>
            <path id="Path_83" data-name="Path 83" d="M69.991,290.674a19.155,19.155,0,0,1-.212-4.425,19.57,19.57,0,0,1,.649-4.278c.421-1.391,1.106-2.738,1.431-4.147a17.775,17.775,0,0,0,.414-4.318,32.321,32.321,0,0,1,.176-4.359A42.524,42.524,0,0,1,73,264.853a33.839,33.839,0,0,1,2.785-8.3.146.146,0,0,1,.2-.064.152.152,0,0,1,.079.11,33.777,33.777,0,0,1-.114,8.759,42.526,42.526,0,0,1-.9,4.237,32.176,32.176,0,0,1-1.275,4.173,17.848,17.848,0,0,0-1.036,4.213c-.158,1.435.043,2.933-.02,4.385a19.5,19.5,0,0,1-.8,4.253,19.148,19.148,0,0,1-1.661,4.106.149.149,0,0,1-.2.054A.163.163,0,0,1,69.991,290.674Z" transform="translate(-69.744 -256.468)" fill="#f5cc00"/>
          </g>
        </g>
        <g id="Group_333" data-name="Group 333" transform="translate(13.558 19.677)">
          <g id="Group_332" data-name="Group 332">
            <line id="Line_84" data-name="Line 84" y1="36.92" x2="5.9" transform="translate(0.38 0.106)" fill="#fff"/>
            <path id="Path_84" data-name="Path 84" d="M74.945,294.047a21.532,21.532,0,0,1-.2-4.764,22.479,22.479,0,0,1,.658-4.628c.42-1.51,1.114-2.978,1.442-4.5a20.731,20.731,0,0,0,.427-4.664,37.385,37.385,0,0,1,.188-4.7c.145-1.554.279-3.11.568-4.642a39.215,39.215,0,0,1,2.813-9.016.145.145,0,0,1,.194-.07.148.148,0,0,1,.082.113,39.255,39.255,0,0,1-.137,9.445c-.2,1.545-.561,3.066-.908,4.589a37.419,37.419,0,0,1-1.287,4.527,20.743,20.743,0,0,0-1.049,4.565c-.163,1.551.038,3.162-.032,4.728a22.6,22.6,0,0,1-.817,4.6,21.553,21.553,0,0,1-1.671,4.466.148.148,0,0,1-.2.061A.16.16,0,0,1,74.945,294.047Z" transform="translate(-74.705 -257.043)" fill="#f5cc00"/>
          </g>
        </g>
        <g id="Group_335" data-name="Group 335" transform="translate(20.718 22.267)">
          <g id="Group_334" data-name="Group 334">
            <line id="Line_85" data-name="Line 85" y1="37.278" x2="5.947" transform="translate(0.375 0.107)" fill="#fff"/>
            <path id="Path_85" data-name="Path 85" d="M80.075,296.262a21.925,21.925,0,0,1-.19-4.809,22.928,22.928,0,0,1,.665-4.672c.423-1.524,1.119-3.007,1.448-4.547a21.148,21.148,0,0,0,.432-4.71,38.085,38.085,0,0,1,.194-4.748c.146-1.569.283-3.14.575-4.686a40,40,0,0,1,2.824-9.106.147.147,0,0,1,.194-.071.15.15,0,0,1,.084.114,39.905,39.905,0,0,1-.149,9.533c-.2,1.561-.563,3.1-.914,4.633a38.119,38.119,0,0,1-1.293,4.572,21.151,21.151,0,0,0-1.054,4.611c-.166,1.566.033,3.191-.039,4.773a22.9,22.9,0,0,1-.823,4.646,21.993,21.993,0,0,1-1.676,4.511.149.149,0,0,1-.278-.043Z" transform="translate(-79.838 -258.899)" fill="#f5cc00"/>
          </g>
        </g>
        <g id="Group_337" data-name="Group 337" transform="translate(28.192 10.76)">
          <g id="Group_336" data-name="Group 336">
            <line id="Line_86" data-name="Line 86" y1="51.355" x2="8.399" transform="translate(0.226 0.114)" fill="#fff"/>
            <path id="Path_86" data-name="Path 86" d="M85.285,302.1a40.6,40.6,0,0,1,.117-6.572,44.612,44.612,0,0,1,.971-6.432c.523-2.112,1.325-4.177,1.752-6.306a39.64,39.64,0,0,0,.741-6.47c.079-2.184.226-4.357.5-6.509.236-2.158.506-4.311.881-6.446a74.442,74.442,0,0,1,3.435-12.619.143.143,0,0,1,.276.045,74.447,74.447,0,0,1-.764,13.057c-.325,2.144-.753,4.271-1.218,6.392-.425,2.127-.979,4.234-1.6,6.329a39.471,39.471,0,0,0-1.358,6.368c-.272,2.152-.17,4.366-.347,6.534a44.411,44.411,0,0,1-1.13,6.406,40.577,40.577,0,0,1-1.982,6.267.145.145,0,0,1-.19.077A.142.142,0,0,1,85.285,302.1Z" transform="translate(-85.197 -250.649)" fill="#f5cc00"/>
          </g>
        </g>
      </g>
      <g id="Group_357" data-name="Group 357" transform="translate(8.285 2.009)">
        <g id="Group_340" data-name="Group 340" transform="translate(35.559)">
          <g id="Group_339" data-name="Group 339">
            <line id="Line_87" data-name="Line 87" y1="64.898" x2="9.593" transform="translate(0.183 0.118)" fill="#fff"/>
            <path id="Path_87" data-name="Path 87" d="M92.87,308.327a63.647,63.647,0,0,1,.264-8.25,70.44,70.44,0,0,1,1.12-8.124c.57-2.679,1.417-5.318,1.9-8.009a64.33,64.33,0,0,0,.89-8.158c.131-2.743.318-5.48.654-8.193.3-2.718.587-5.439,1.025-8.138a117.383,117.383,0,0,1,3.736-16.027.14.14,0,0,1,.177-.092.143.143,0,0,1,.1.133,117.6,117.6,0,0,1-1.059,16.423c-.363,2.71-.879,5.4-1.374,8.087-.462,2.695-1.075,5.368-1.743,8.032a64.3,64.3,0,0,0-1.508,8.067c-.315,2.717-.266,5.487-.5,8.216a71.048,71.048,0,0,1-1.278,8.1,63.873,63.873,0,0,1-2.134,7.974.143.143,0,0,1-.278-.042Z" transform="translate(-92.824 -243.33)" fill="#f5cc00"/>
          </g>
        </g>
        <g id="Group_342" data-name="Group 342" transform="translate(42.145 0.796)">
          <g id="Group_341" data-name="Group 341">
            <line id="Line_88" data-name="Line 88" y1="65.478" x2="10.4" transform="translate(0.162 0.12)" fill="#fff"/>
            <path id="Path_88" data-name="Path 88" d="M97.571,309.477a64.891,64.891,0,0,1,.367-8.333,72.047,72.047,0,0,1,1.22-8.2c.6-2.7,1.484-5.359,2-8.074a65.566,65.566,0,0,0,.992-8.234c.165-2.77.385-5.533.757-8.271.338-2.743.656-5.49,1.126-8.212A119.858,119.858,0,0,1,107.971,244a.141.141,0,0,1,.179-.091.143.143,0,0,1,.1.134,120.092,120.092,0,0,1-1.264,16.582c-.4,2.734-.946,5.444-1.474,8.158-.5,2.718-1.142,5.413-1.844,8.1a65.584,65.584,0,0,0-1.608,8.135c-.347,2.742-.335,5.541-.6,8.3a71.737,71.737,0,0,1-1.379,8.172,65.16,65.16,0,0,1-2.233,8.036.142.142,0,0,1-.276-.043Z" transform="translate(-97.547 -243.901)" fill="#f5cc00"/>
          </g>
        </g>
        <g id="Group_344" data-name="Group 344" transform="translate(50.2 3.971)">
          <g id="Group_343" data-name="Group 343">
            <line id="Line_89" data-name="Line 89" y1="58.962" x2="9.493" transform="translate(0.186 0.117)" fill="#fff"/>
            <path id="Path_89" data-name="Path 89" d="M103.369,305.234a52.886,52.886,0,0,1,.254-7.52,58.514,58.514,0,0,1,1.107-7.382c.569-2.428,1.416-4.813,1.888-7.257a51.992,51.992,0,0,0,.877-7.42c.124-2.5.317-4.99.636-7.459.282-2.476.6-4.944,1.02-7.4a97.667,97.667,0,0,1,3.709-14.526.142.142,0,0,1,.276.045,97.665,97.665,0,0,1-1.038,14.956c-.37,2.462-.845,4.905-1.354,7.343-.47,2.445-1.07,4.869-1.736,7.282a51.971,51.971,0,0,0-1.5,7.321c-.318,2.47-.262,5-.485,7.484a58.514,58.514,0,0,1-1.265,7.357,52.949,52.949,0,0,1-2.12,7.221.142.142,0,0,1-.186.081A.15.15,0,0,1,103.369,305.234Z" transform="translate(-103.322 -246.177)" fill="#f5cc00"/>
          </g>
        </g>
        <g id="Group_346" data-name="Group 346" transform="translate(60.865 13.911)">
          <g id="Group_345" data-name="Group 345">
            <line id="Line_90" data-name="Line 90" y1="24.43" x2="4.437" transform="translate(0.517 0.094)" fill="#fff"/>
            <path id="Path_90" data-name="Path 90" d="M111.35,277.8a10.546,10.546,0,0,1-.381-3.223,10.1,10.1,0,0,1,.478-3.068c.363-.986.99-1.922,1.259-2.926a9.267,9.267,0,0,0,.244-3.11,17.006,17.006,0,0,1,.007-3.153,22.149,22.149,0,0,1,.385-3.085,18.05,18.05,0,0,1,2.442-5.865.153.153,0,0,1,.212-.042.15.15,0,0,1,.063.092,18.064,18.064,0,0,1,.225,6.35,21.9,21.9,0,0,1-.724,3.022,16.907,16.907,0,0,1-1.1,2.954,9.27,9.27,0,0,0-.865,3c-.1,1.034.156,2.131.151,3.181a10.1,10.1,0,0,1-.632,3.04,10.508,10.508,0,0,1-1.49,2.884.159.159,0,0,1-.222.028A.157.157,0,0,1,111.35,277.8Z" transform="translate(-110.969 -253.304)" fill="#f5cc00"/>
          </g>
        </g>
        <g id="Group_348" data-name="Group 348" transform="translate(0 18.791)">
          <g id="Group_347" data-name="Group 347">
            <line id="Line_91" data-name="Line 91" y1="31.878" x2="5.286" transform="translate(0.431 0.099)" fill="#fff"/>
            <path id="Path_91" data-name="Path 91" d="M67.622,288.758a16.8,16.8,0,0,1-.276-4.14,17.011,17.011,0,0,1,.584-4c.4-1.3,1.064-2.554,1.367-3.868a15.535,15.535,0,0,0,.35-4.036,28.293,28.293,0,0,1,.112-4.075,37.127,37.127,0,0,1,.491-4.013,29.627,29.627,0,0,1,2.658-7.748.149.149,0,0,1,.2-.061.151.151,0,0,1,.077.107,29.625,29.625,0,0,1,.015,8.191,37.135,37.135,0,0,1-.831,3.957,28.121,28.121,0,0,1-1.209,3.894,15.464,15.464,0,0,0-.971,3.933c-.138,1.342.086,2.743.046,4.1a17.025,17.025,0,0,1-.738,3.972,16.848,16.848,0,0,1-1.6,3.83.152.152,0,0,1-.206.052A.171.171,0,0,1,67.622,288.758Z" transform="translate(-67.329 -256.803)" fill="#f5cc00"/>
          </g>
        </g>
        <g id="Group_350" data-name="Group 350" transform="translate(6.937 18.781)">
          <g id="Group_349" data-name="Group 349">
            <line id="Line_92" data-name="Line 92" y1="35.009" x2="6.191" transform="translate(0.354 0.104)" fill="#fff"/>
            <path id="Path_92" data-name="Path 92" d="M72.519,291.885a19.608,19.608,0,0,1-.156-4.54,20.377,20.377,0,0,1,.695-4.391c.432-1.428,1.137-2.808,1.477-4.251A18.8,18.8,0,0,0,75,274.272a33.8,33.8,0,0,1,.226-4.474,44.373,44.373,0,0,1,.605-4.406,35.6,35.6,0,0,1,2.883-8.516.146.146,0,0,1,.2-.064.15.15,0,0,1,.079.113,35.574,35.574,0,0,1-.213,8.988c-.215,1.466-.584,2.905-.943,4.346a33.93,33.93,0,0,1-1.322,4.279,18.8,18.8,0,0,0-1.084,4.321c-.176,1.473.013,3.011-.071,4.5a20.381,20.381,0,0,1-.854,4.363,19.647,19.647,0,0,1-1.7,4.212.15.15,0,0,1-.2.056A.146.146,0,0,1,72.519,291.885Z" transform="translate(-72.303 -256.796)" fill="#f5cc00"/>
          </g>
        </g>
        <g id="Group_352" data-name="Group 352" transform="translate(13.826 20.466)">
          <g id="Group_351" data-name="Group 351">
            <line id="Line_93" data-name="Line 93" y1="36.925" x2="5.9" transform="translate(0.38 0.106)" fill="#fff"/>
            <path id="Path_93" data-name="Path 93" d="M77.483,295.013a21.541,21.541,0,0,1-.2-4.766,22.466,22.466,0,0,1,.658-4.628c.421-1.51,1.114-2.978,1.442-4.5a20.831,20.831,0,0,0,.427-4.665,37.638,37.638,0,0,1,.188-4.7c.145-1.555.279-3.112.568-4.643a39.18,39.18,0,0,1,2.813-9.017.145.145,0,0,1,.194-.07.148.148,0,0,1,.082.114,39.181,39.181,0,0,1-.137,9.445c-.2,1.545-.559,3.066-.907,4.589a38.028,38.028,0,0,1-1.287,4.529,20.744,20.744,0,0,0-1.049,4.565c-.163,1.552.038,3.162-.032,4.729a22.594,22.594,0,0,1-.817,4.6,21.523,21.523,0,0,1-1.671,4.466.148.148,0,0,1-.2.061A.152.152,0,0,1,77.483,295.013Z" transform="translate(-77.243 -258.004)" fill="#f5cc00"/>
          </g>
        </g>
        <g id="Group_354" data-name="Group 354" transform="translate(20.991 23.057)">
          <g id="Group_353" data-name="Group 353">
            <line id="Line_94" data-name="Line 94" y1="37.28" x2="5.944" transform="translate(0.375 0.107)" fill="#fff"/>
            <path id="Path_94" data-name="Path 94" d="M82.616,297.226a21.925,21.925,0,0,1-.19-4.809,22.913,22.913,0,0,1,.664-4.672c.423-1.526,1.119-3.007,1.448-4.548a21.144,21.144,0,0,0,.432-4.709,38.084,38.084,0,0,1,.194-4.748c.145-1.569.282-3.141.573-4.688a39.927,39.927,0,0,1,2.824-9.106.147.147,0,0,1,.194-.071.15.15,0,0,1,.084.114,39.981,39.981,0,0,1-.148,9.533c-.2,1.561-.563,3.095-.912,4.632a38.05,38.05,0,0,1-1.293,4.572,21.15,21.15,0,0,0-1.054,4.611c-.166,1.566.035,3.191-.038,4.771a22.916,22.916,0,0,1-.823,4.647,21.911,21.911,0,0,1-1.676,4.511.146.146,0,0,1-.2.061A.135.135,0,0,1,82.616,297.226Z" transform="translate(-82.379 -259.862)" fill="#f5cc00"/>
          </g>
        </g>
        <g id="Group_356" data-name="Group 356" transform="translate(28.502 3.462)">
          <g id="Group_355" data-name="Group 355">
            <line id="Line_95" data-name="Line 95" y1="59.442" x2="9.458" transform="translate(0.187 0.116)" fill="#fff"/>
            <path id="Path_95" data-name="Path 95" d="M87.814,305.35a53.914,53.914,0,0,1,.248-7.579,59.433,59.433,0,0,1,1.1-7.442c.568-2.449,1.413-4.854,1.884-7.318a52.8,52.8,0,0,0,.873-7.48c.123-2.52.314-5.028.632-7.518.28-2.5.594-4.985,1.014-7.456a99.259,99.259,0,0,1,3.7-14.649.142.142,0,0,1,.276.043,99.03,99.03,0,0,1-1.028,15.073c-.368,2.481-.842,4.946-1.35,7.4-.469,2.464-1.067,4.909-1.732,7.343a52.816,52.816,0,0,0-1.49,7.381c-.317,2.49-.259,5.038-.48,7.543a59.432,59.432,0,0,1-1.261,7.417,53.741,53.741,0,0,1-2.116,7.282.143.143,0,0,1-.186.082A.148.148,0,0,1,87.814,305.35Z" transform="translate(-87.765 -245.813)" fill="#f5cc00"/>
          </g>
        </g>
      </g>
    </g>
    <g id="Group_360" data-name="Group 360" transform="translate(91.491 271.813)">
      <g id="Group_359" data-name="Group 359">
        <path id="Path_96" data-name="Path 96" d="M95.7,271.061c-15.733-9.253-20.717,6.9-12.583,12.7,5.089,3.636,16.9,6.555,21.926,7.473,0,0,7.921-15.179,8.5-21.408C114.45,259.881,99.365,252.259,95.7,271.061Z" transform="translate(-77.999 -258.317)" fill="#fff"/>
        <path id="Path_97" data-name="Path 97" d="M95.981,271.527a23.54,23.54,0,0,0-6.275-1.929,8.679,8.679,0,0,0-5.834.975,6.654,6.654,0,0,0-2.915,4.682,8.94,8.94,0,0,0,1.054,5.632,8.418,8.418,0,0,0,1.861,2.292,18.276,18.276,0,0,0,2.642,1.8,37.627,37.627,0,0,0,6.024,2.782,63.28,63.28,0,0,0,12.992,3.068l-.809.395c1.8-4.106,3.527-8.265,5.158-12.4a56.416,56.416,0,0,0,2.056-6.258,15.406,15.406,0,0,0,.5-3.024,8.279,8.279,0,0,0-.41-2.777,8.573,8.573,0,0,0-3.374-4.538,6.066,6.066,0,0,0-5.349-.845,8.907,8.907,0,0,0-4.492,3.962,26.164,26.164,0,0,0-2.618,6.087.153.153,0,0,1-.19.1Zm-.033-.364a20.7,20.7,0,0,1,1.607-6.483,10.3,10.3,0,0,1,4.928-5.347,7.81,7.81,0,0,1,3.879-.639,9.13,9.13,0,0,1,3.716,1.225,11.064,11.064,0,0,1,4.783,5.911,10.73,10.73,0,0,1,.554,3.879,14.632,14.632,0,0,1-.667,3.624,58.647,58.647,0,0,1-2.434,6.49,105.549,105.549,0,0,1-6.247,12.113l-.043.074a.7.7,0,0,1-.766.322c-4.406-1.091-8.7-2.379-13.01-3.7-2.151-.675-4.312-1.344-6.435-2.239a19.655,19.655,0,0,1-3.123-1.636,9.726,9.726,0,0,1-2.66-2.632,9.961,9.961,0,0,1-1.516-7.272,9.457,9.457,0,0,1,1.413-3.561,8.167,8.167,0,0,1,2.862-2.593,9.711,9.711,0,0,1,7.22-.554A18.37,18.37,0,0,1,95.948,271.163Z" transform="translate(-78.355 -258.661)"/>
      </g>
    </g>
  </g>
</svg>
