<svg xmlns="http://www.w3.org/2000/svg" width="56.37" height="73" viewBox="0 0 56.37 73">
  <g id="Group_1344" data-name="Group 1344" transform="translate(-1531 -402)">
    <path id="Ellipse_4" data-name="Ellipse 4" d="M0,8a8,8,0,1,1,8,8A8,8,0,0,1,0,8Z" transform="translate(1531 459)" fill="#e13c5b" style="mix-blend-mode: normal;isolation: isolate"/>
    <g id="Group_1265" data-name="Group 1265" transform="translate(896.66 98.028)">
      <g id="Group_381" data-name="Group 381">
        <path id="Path_112" data-name="Path 112" d="M664.207,346.756c-4.626.308-12.17,2.294-14.1-3.381-2.641-7.757-8.121-18.588-6.783-26.863A14.194,14.194,0,0,1,653.4,305.243a13.237,13.237,0,0,1,14.044,5.235,12.408,12.408,0,0,1-1.05,14.807,14.534,14.534,0,0,1,13.333-5.944c5.06.707,9.575,4.887,10.2,9.958.72,5.8-3.488,11.3-8.687,13.967S670.035,346.367,664.207,346.756Z" fill="#ff1b4c"/>
      </g>
      <g id="Group_383" data-name="Group 383">
        <g id="Group_382" data-name="Group 382">
          <path id="Path_113" data-name="Path 113" d="M664.207,346.334c-2.352.081-4.7.4-7.051.353-2.032-.042-4.448-.458-5.686-2.259a16.66,16.66,0,0,1-1.506-3.743c-.53-1.435-1.088-2.86-1.639-4.287a94.8,94.8,0,0,1-3.273-9.569,26.6,26.6,0,0,1-1.1-9.111,13.4,13.4,0,0,1,3.427-7.8,12.4,12.4,0,0,1,7.609-4.088,12.81,12.81,0,0,1,8.266,1.917,11.076,11.076,0,0,1,5.24,7.768,11.368,11.368,0,0,1-2.658,9.212l1.243.959a14.007,14.007,0,0,1,10.021-5.619,11.7,11.7,0,0,1,9.979,4.413,10.262,10.262,0,0,1,1.24,10.6,16.793,16.793,0,0,1-8.577,8.23c-4.824,2.175-10.328,2.514-15.537,2.8-.834.045-.829,1.362,0,1.3,5.084-.4,10.287-.738,15.087-2.61a18.426,18.426,0,0,0,9.964-8.422,11.843,11.843,0,0,0-.347-11.968,13.16,13.16,0,0,0-10.5-5.989,15.616,15.616,0,0,0-12.7,6.47c-.536.721.646,1.621,1.243.959a13.457,13.457,0,0,0-.181-17.709,13.983,13.983,0,0,0-17.829-1.742,15.532,15.532,0,0,0-5.786,7.565,19.45,19.45,0,0,0-.419,9.642c1.159,6.9,4.263,13.266,6.566,19.82a6.475,6.475,0,0,0,2.124,3.124,7.005,7.005,0,0,0,3.273,1.3,26.363,26.363,0,0,0,7.742-.44c.585-.086,1.171-.167,1.76-.228C664.735,347.122,664.76,346.315,664.207,346.334Z" fill="#39262b"/>
        </g>
      </g>
      <g id="Group_385" data-name="Group 385">
        <g id="Group_384" data-name="Group 384">
          <path id="Path_114" data-name="Path 114" d="M655.012,310.284c-3.608.424-5.585,3.9-6.228,7.15-.6,3.023-1.122,7.473,1.609,9.66.586.469,1.411-.3.845-.845a5.55,5.55,0,0,1-1.472-3.692,21.506,21.506,0,0,1,.206-4.681c.441-3.029,1.933-6.215,5.1-7.124.248-.071.213-.5-.063-.468Z" fill="#39262b"/>
        </g>
      </g>
      <g id="Group_387" data-name="Group 387">
        <g id="Group_386" data-name="Group 386">
          <path id="Path_115" data-name="Path 115" d="M652.291,335.3l.269.087a.64.64,0,0,0,.437-.057.43.43,0,0,0,.159-.146.423.423,0,0,0,.1-.193c.007-.05.013-.1.02-.151a.565.565,0,0,0-.077-.286l-.089-.115a.571.571,0,0,0-.25-.146l-.277-.057a.422.422,0,0,0-.22-.01.413.413,0,0,0-.205.065.619.619,0,0,0-.254.329c-.006.049-.013.1-.02.146a.545.545,0,0,0,.075.278l.086.111a.541.541,0,0,0,.245.145Z" fill="#39262b"/>
        </g>
      </g>
      <g id="Group_389" data-name="Group 389">
        <g id="Group_388" data-name="Group 388">
          <path id="Path_116" data-name="Path 116" d="M654.109,340.571l.272.076a.5.5,0,0,0,.266.012.491.491,0,0,0,.248-.079.5.5,0,0,0,.187-.172.509.509,0,0,0,.12-.227l.024-.177a.663.663,0,0,0-.091-.337l-.1-.135a.668.668,0,0,0-.295-.172l-.274-.069a.5.5,0,0,0-.265-.012.49.49,0,0,0-.247.079.51.51,0,0,0-.186.171.5.5,0,0,0-.119.226l-.024.177a.656.656,0,0,0,.091.335c.035.045.069.09.1.134a.671.671,0,0,0,.293.17Z" fill="#39262b"/>
        </g>
      </g>
      <g id="Group_391" data-name="Group 391">
        <g id="Group_390" data-name="Group 390">
          <path id="Path_117" data-name="Path 117" d="M670.16,329.537a10.438,10.438,0,0,1,7.966-3.318,8.807,8.807,0,0,1,4.1,1.166c1.358.8,2.709,2.075,2.509,3.78-.083.708.93.716,1.151.156.765-1.938-.738-3.842-2.3-4.825a10.324,10.324,0,0,0-4.946-1.419,10.83,10.83,0,0,0-9.114,3.974c-.278.365.322.813.631.486Z" fill="#39262b"/>
        </g>
      </g>
      <g id="Group_393" data-name="Group 393">
        <g id="Group_392" data-name="Group 392">
          <path id="Path_118" data-name="Path 118" d="M683.471,336.272a.6.6,0,0,0,0-1.2.6.6,0,0,0,0,1.2Z" fill="#39262b"/>
        </g>
      </g>
      <g id="Group_395" data-name="Group 395">
        <g id="Group_394" data-name="Group 394">
          <path id="Path_119" data-name="Path 119" d="M676.936,338.778l-.2-.345a.652.652,0,0,0-.348-.267.655.655,0,0,0-.448.059l-.118.091a.587.587,0,0,0-.15.257l-.021.155a.584.584,0,0,0,.079.294l.2.345a.436.436,0,0,0,.15.163.522.522,0,0,0,.43.114.428.428,0,0,0,.216-.069l.118-.091a.587.587,0,0,0,.15-.257l.021-.155a.573.573,0,0,0-.079-.294Z" fill="#39262b"/>
        </g>
      </g>
      <g id="Group_397" data-name="Group 397">
        <g id="Group_396" data-name="Group 396">
          <path id="Path_120" data-name="Path 120" d="M661.516,314.114a6.238,6.238,0,0,1,1.375,5.294.573.573,0,0,0,.39.687.563.563,0,0,0,.687-.39,6.961,6.961,0,0,0-1.862-6.182c-.379-.388-.942.19-.59.591Z" fill="#39262b"/>
        </g>
      </g>
      <g id="Group_399" data-name="Group 399">
        <g id="Group_398" data-name="Group 398">
          <path id="Path_121" data-name="Path 121" d="M662.994,325.336a.637.637,0,0,0,0-1.273.637.637,0,0,0,0,1.273Z" fill="#39262b"/>
        </g>
      </g>
    </g>
  </g>
</svg>
