<svg xmlns="http://www.w3.org/2000/svg" width="96.706" height="68.5" viewBox="0 0 96.706 68.5">
  <g id="quote-right" transform="translate(0 -4)">
    <path id="Path_2" data-name="Path 2" d="M32.235,4H16.118A16.118,16.118,0,0,0,0,20.118V36.235a8.059,8.059,0,0,0,8.059,8.059H31.873A24.2,24.2,0,0,1,8.059,64.441a4.029,4.029,0,1,0,0,8.059A32.272,32.272,0,0,0,40.294,40.265V12.059A8.059,8.059,0,0,0,32.235,4Z" fill="rgba(255,255,255,0.35)"/>
    <path id="Path_3" data-name="Path 3" d="M46.235,4H30.118A16.118,16.118,0,0,0,14,20.118V36.235a8.059,8.059,0,0,0,8.059,8.059H45.873A24.2,24.2,0,0,1,22.059,64.441a4.029,4.029,0,0,0,0,8.059A32.272,32.272,0,0,0,54.294,40.265V12.059A8.059,8.059,0,0,0,46.235,4Z" transform="translate(42.412)" fill="rgba(255,255,255,0.35)"/>
  </g>
</svg>
