<svg xmlns="http://www.w3.org/2000/svg" width="122.925" height="90.25" viewBox="0 0 122.925 90.25">
  <g id="Group_375" data-name="Group 375" transform="translate(-42.495 -64.245)">
    <g id="Group_363" data-name="Group 363" transform="translate(79.138 80.953)">
      <g id="Group_362" data-name="Group 362">
        <path id="Path_98" data-name="Path 98" d="M138.09,111.121a29.784,29.784,0,1,1-30.2-29.364A29.783,29.783,0,0,1,138.09,111.121Z" transform="translate(-77.721 -80.265)" fill="#fff"/>
        <path id="Path_99" data-name="Path 99" d="M138.261,111.177a32.08,32.08,0,0,1-7.938,21.794,28.111,28.111,0,0,1-9.712,7.114,28.563,28.563,0,0,1-11.853,2.455A30.352,30.352,0,0,1,97.038,140a32.452,32.452,0,0,1-9.778-6.724,32.042,32.042,0,0,1-9.467-21.261,29.986,29.986,0,0,1,8.25-22.1,31.219,31.219,0,0,1,9.936-7.018,30.23,30.23,0,0,1,23.875-.233,28.727,28.727,0,0,1,9.893,6.918A32.093,32.093,0,0,1,138.261,111.177Zm-.28,0a27.008,27.008,0,0,0-2.638-11.214,28.7,28.7,0,0,0-6.881-9.063,30.289,30.289,0,0,0-20.517-7.6,28.978,28.978,0,0,0-20.013,8.441,29.583,29.583,0,0,0-8.607,20.262,28.1,28.1,0,0,0,2.092,11.18,27.274,27.274,0,0,0,16.2,15.359,29.194,29.194,0,0,0,11.141,1.662,31.529,31.529,0,0,0,20.308-8.464,29.013,29.013,0,0,0,6.616-9.273A26.828,26.828,0,0,0,137.981,111.179Z" transform="translate(-77.752 -80.321)" fill="#e13c5b"/>
      </g>
    </g>
    <g id="Group_365" data-name="Group 365" transform="translate(54.252 96.129)">
      <g id="Group_364" data-name="Group 364">
        <path id="Path_100" data-name="Path 100" d="M134.4,95.057a29.894,29.894,0,0,1,1.894,3.526c9.36,1.632,15.34,4.2,15.382,7.158.074,5.3-18.886,9.866-42.351,10.195s-42.549-3.7-42.625-9c-.041-2.962,5.868-5.691,15.177-7.585a29.983,29.983,0,0,1,1.8-3.579c-17.355,3.527-29.138,10.247-29.032,17.8.15,10.843,24.737,19.287,54.914,18.865s54.516-9.554,54.364-20.395C163.811,104.484,151.842,98.1,134.4,95.057Z" transform="translate(-53.774 -94.917)" fill="#fff"/>
        <path id="Path_101" data-name="Path 101" d="M134.73,95.278a30.9,30.9,0,0,1,1.857,3.189l-.215-.166a64.03,64.03,0,0,1,7.756,1.56,29.645,29.645,0,0,1,3.791,1.3,10.414,10.414,0,0,1,3.51,2.276,3.609,3.609,0,0,1,1.022,2.187,3.106,3.106,0,0,1-.191,1.276,4.231,4.231,0,0,1-.585,1.056,10.331,10.331,0,0,1-3.365,2.607,38.8,38.8,0,0,1-7.534,2.829c-10.294,2.718-20.87,3.575-31.411,3.8a128.005,128.005,0,0,1-31.468-3.06,38.678,38.678,0,0,1-7.577-2.616,10.163,10.163,0,0,1-3.382-2.476,3.352,3.352,0,0,1-.8-2.223,3.463,3.463,0,0,1,.926-2.1,10.617,10.617,0,0,1,3.379-2.364,29.9,29.9,0,0,1,3.717-1.462,66.114,66.114,0,0,1,7.663-1.963l-.308.252a34.433,34.433,0,0,1,1.819-3.632l.456.644a90.738,90.738,0,0,0-11.71,3.23A43.9,43.9,0,0,0,61.32,104.8a17.991,17.991,0,0,0-4.214,4.05,7.52,7.52,0,0,0-1.537,5.2,8.481,8.481,0,0,0,2.482,4.781,21.23,21.23,0,0,0,4.607,3.514,49.4,49.4,0,0,0,11.026,4.5,96.811,96.811,0,0,0,11.766,2.575,139.167,139.167,0,0,0,24.106,1.528,146.439,146.439,0,0,0,24.046-2.317,99.931,99.931,0,0,0,11.676-2.9,49.359,49.359,0,0,0,10.871-4.788,20.333,20.333,0,0,0,4.468-3.634,8.369,8.369,0,0,0,2.288-4.8,7.385,7.385,0,0,0-1.643-5.027,17.881,17.881,0,0,0-4.277-3.919,47.887,47.887,0,0,0-10.837-5.172A96.089,96.089,0,0,0,134.73,95.278Zm-.278-.354a85.805,85.805,0,0,1,12,2.5,45.346,45.346,0,0,1,11.389,4.818,19.487,19.487,0,0,1,4.854,4.119,9.329,9.329,0,0,1,2.267,6.265,10.342,10.342,0,0,1-2.659,6.132,37.218,37.218,0,0,1-4.872,4.181,114.079,114.079,0,0,1-11.309,5.33,88.826,88.826,0,0,1-11.976,3.185,133.668,133.668,0,0,1-24.538,2.461,140.237,140.237,0,0,1-24.592-1.887,91.518,91.518,0,0,1-12.047-2.842,51.584,51.584,0,0,1-11.43-5,21.744,21.744,0,0,1-4.948-4.036,10.252,10.252,0,0,1-2.769-6.012,8.281,8.281,0,0,1,.465-3.318,10.761,10.761,0,0,1,1.586-2.878,19.367,19.367,0,0,1,4.686-4.242,49.363,49.363,0,0,1,11.18-5.235,91.517,91.517,0,0,1,11.87-3.126.432.432,0,0,1,.457.644q-.5.847-.953,1.725-.433.889-.821,1.8a.44.44,0,0,1-.308.252,62.7,62.7,0,0,0-7.537,2,28.662,28.662,0,0,0-3.558,1.5,9.658,9.658,0,0,0-2.979,2.168,2.3,2.3,0,0,0-.588,1.442,2.168,2.168,0,0,0,.592,1.357,8.972,8.972,0,0,0,3.012,1.993,37.18,37.18,0,0,0,7.352,2.211,109.2,109.2,0,0,0,15.445,1.882c5.191.321,10.393.428,15.606.359s10.408-.306,15.58-.82a111.573,111.573,0,0,0,15.353-2.423,37.085,37.085,0,0,0,7.255-2.414,8.848,8.848,0,0,0,2.9-2.038,1.808,1.808,0,0,0-.071-2.6,9.8,9.8,0,0,0-2.969-2.078,28.516,28.516,0,0,0-3.563-1.455,64.548,64.548,0,0,0-7.55-1.981l-.021,0a.275.275,0,0,1-.2-.162,29.9,29.9,0,0,0-1.748-3.575.146.146,0,0,1,.147-.214Z" transform="translate(-53.807 -94.923)" fill="#e13c5b"/>
      </g>
    </g>
    <g id="Group_367" data-name="Group 367" transform="translate(42.495 80.422)">
      <g id="Group_366" data-name="Group 366">
        <path id="Path_102" data-name="Path 102" d="M49.268,79.938l4.588,4.976L60,82.054l-3.317,5.9L61.3,92.915l-6.642-1.328L51.367,97.5l-.787-6.724-6.647-1.3,6.153-2.83Z" transform="translate(-42.438 -79.805)" fill="#fff"/>
        <path id="Path_103" data-name="Path 103" d="M49.428,79.848l5,4.6-.81-.16,5.9-3.367a1.231,1.231,0,0,1,1.644,1.736l-.015.022-3.682,5.7-.117-.983,4.309,5.243a.429.429,0,0,1-.39.7l-6.724-.918.9-.415L52.524,98.12a1.235,1.235,0,0,1-2.34-.367l-.012-.1-.856-6.715,1.066,1.151-6.66-1.226-.111-.021a1.362,1.362,0,0,1-.2-2.624l6.417-2.257-.442.791-.194-6.793a.145.145,0,0,1,.138-.15A.153.153,0,0,1,49.428,79.848Zm.035.078,1.444,6.64a.668.668,0,0,1-.318.72l-.125.072-5.89,3.4-.317-2.644,6.633,1.364.028.005a1.315,1.315,0,0,1,1.039,1.145l.717,6.732L50.323,96.9l3.654-5.714.056-.088a.766.766,0,0,1,.843-.327l6.559,1.741-.39.7-4.924-4.672a.768.768,0,0,1-.163-.889L56,87.552l2.95-6.109,1.63,1.758-6.376,2.353-.108.041a.62.62,0,0,1-.7-.2l-4.176-5.356Z" transform="translate(-42.495 -79.81)"/>
      </g>
    </g>
    <g id="Group_369" data-name="Group 369" transform="translate(133.138 133.626)">
      <g id="Group_368" data-name="Group 368">
        <path id="Path_104" data-name="Path 104" d="M142.944,131.127l.219,7.781,7.476,2.158-7.33,2.617.258,7.776-4.753-6.162-7.319,2.646,4.4-6.424-4.779-6.144,7.467,2.2Z" transform="translate(-129.652 -130.996)" fill="#fff"/>
        <path id="Path_105" data-name="Path 105" d="M143.139,131.128l.778,7.766-.505-.653,7.632,1.62a1.234,1.234,0,0,1,.1,2.389l-.023.006-7.472,2.222.557-.819-.161,7.791a.427.427,0,0,1-.751.27l-5.085-5.907.95.277-7.177,3.041a1.238,1.238,0,0,1-1.515-1.823l.048-.072,4.339-6.463.048,1.566-4.833-6.1-.062-.078a1.367,1.367,0,0,1,1.561-2.124l7.289,2.8-.854.307,4.887-6.092a.145.145,0,0,1,.2-.024A.147.147,0,0,1,143.139,131.128Zm-.025.083-3.843,6.8a.683.683,0,0,1-.732.333l-.123-.026-7.643-1.592,1.5-2.2L137,140.707l.015.019a1.316,1.316,0,0,1,.033,1.549l-4.455,6.384-1.468-1.9,7.462-2.251.087-.026a.778.778,0,0,1,.864.3l4.42,6.419-.752.27-.678-7.763a.777.777,0,0,1,.473-.784l.084-.035,7.19-3.012.074,2.4-7.321-2.695-.095-.034a.632.632,0,0,1-.412-.618l.34-7.8Z" transform="translate(-129.708 -131.001)"/>
      </g>
    </g>
    <g id="Group_371" data-name="Group 371" transform="translate(129.878 64.245)">
      <g id="Group_370" data-name="Group 370">
        <path id="Path_106" data-name="Path 106" d="M138.28,64.372l.191,6.768,6.5,1.878L138.6,75.293l.225,6.767L134.689,76.7,128.322,79l3.823-5.59-4.157-5.34,6.495,1.908Z" transform="translate(-126.515 -64.24)" fill="#fff"/>
        <path id="Path_107" data-name="Path 107" d="M138.475,64.373l.75,6.753-.505-.653,6.659,1.341a1.231,1.231,0,0,1,.1,2.389l-.026.007-6.518,1.88.557-.818-.2,6.78a.429.429,0,0,1-.752.27l-4.466-5.108.951.277-6.225,2.7a1.236,1.236,0,0,1-1.523-1.814l.055-.082,3.766-5.629.048,1.567-4.212-5.3-.071-.089a1.362,1.362,0,0,1,1.569-2.113l6.317,2.512-.854.307,4.319-5.253a.144.144,0,0,1,.2-.022A.139.139,0,0,1,138.475,64.373Zm-.024.083-3.276,5.959a.667.667,0,0,1-.713.335l-.141-.028-6.671-1.3,1.5-2.2,4.1,5.383.017.022a1.314,1.314,0,0,1,.031,1.545l-3.881,5.55-1.468-1.9,6.51-1.909.1-.029a.767.767,0,0,1,.851.307l3.8,5.621-.752.27-.643-6.753a.767.767,0,0,1,.46-.777l.1-.042,6.236-2.67.074,2.4-6.349-2.415-.108-.041a.617.617,0,0,1-.4-.611l.369-6.784Z" transform="translate(-126.571 -64.245)"/>
      </g>
    </g>
  </g>
</svg>
