<svg xmlns="http://www.w3.org/2000/svg" width="80.551" height="142.243" viewBox="0 0 80.551 142.243">
  <g id="Group_1313" data-name="Group 1313" transform="translate(-106.016 -194.087)">
    <g id="Group_750" data-name="Group 750" transform="translate(106.016 194.087)">
      <path id="Path_357" data-name="Path 357" d="M180.947,297.824c.967-6.559,1.7-13.128,2.516-19.707.849-6.812,2.061-13.547,3.074-20.334.222-1.488-.851-3.11-2.557-2.626-6.722,1.907-13.432,3.856-20.142,5.8A148.624,148.624,0,0,0,162.4,224.32a2.2,2.2,0,0,0-2.669-1.58c-6.63,2.206-13.343,4.278-19.877,6.769-2.227-11.142-3.268-22.441-4.317-33.751a1.827,1.827,0,0,0-3.314-.885c-4.7,1.918-10.563,4.009-15.578,5.984-2.813,1.107-5.654,2.189-8.392,3.475-1.815.852-2.455,1.706-2.168,3.757.755,5.368,1.721,10.709,2.562,16.063,1.2,7.633,2,15.3,3.317,22.924a69.381,69.381,0,0,1,1.112,10.321,30.307,30.307,0,0,1-.079,3.39c-.01.113-.016.179-.02.22-.02.125-.064.259-.1.392-1.728,1.475.232,4.455,2.541,3.44,6.411-2.82,12.827-5.634,19.221-8.5a280.317,280.317,0,0,1-2.143,35.8,2.167,2.167,0,0,0,2.695,2.112q11.738-4.631,23.076-10.2c3.234,17.076,6.971,34.05,10.845,50.991a1.753,1.753,0,0,0,3.161.471C178.062,323.852,179.075,310.525,180.947,297.824Zm-9.689,31.158c-3.789-16.04-6.855-32.235-9.458-48.506-.225-1.406-1.923-1.826-3.025-1.3q-10.7,5.1-21.653,9.614c1.141-11.786,1.511-23.668,1.5-35.5a2.045,2.045,0,0,0-3-1.78c-6.038,2.542-12.051,5.147-18.063,7.75a57.359,57.359,0,0,0-.626-6.592c-.788-7.576-1.283-15.013-2.926-22.48-1.434-6.516-2.444-13.159-3.665-19.72-.164-.875-.327-1.749-.48-2.626.614-.327,1.342-.81,1.609-.933,1.421-.659,2.856-1.286,4.288-1.918,5.469-2.414,11.041-4.616,16.506-7.037,1.049,11.469,2.769,22.861,3.966,34.318a2.1,2.1,0,0,0,2.58,2.02c6.648-1.851,13.167-4.222,19.689-6.495A141.973,141.973,0,0,1,159,264.044a2.286,2.286,0,0,0,2.838,2.222q10.1-3.04,20.2-6.107c-.66,5.528-1.232,11.06-2.071,16.568-.977,6.406-2.074,12.78-2.907,19.206C175.64,306.848,175,318.493,171.258,328.982Z" transform="translate(-106.016 -194.087)" fill="#39262b"/>
      <path id="Path_358" data-name="Path 358" d="M169.752,327.471c-3.789-16.04-6.855-32.235-9.458-48.506-.225-1.406-1.923-1.826-3.025-1.3q-10.7,5.1-21.653,9.614c1.141-11.786,1.511-23.668,1.5-35.5a2.045,2.045,0,0,0-3-1.78c-6.038,2.542-12.051,5.147-18.063,7.75a57.359,57.359,0,0,0-.626-6.592c-.788-7.576-1.283-15.013-2.926-22.48-1.434-6.516-2.444-13.159-3.665-19.72-.164-.875-.327-1.749-.48-2.626.614-.327,1.342-.81,1.609-.933,1.421-.659,2.856-1.286,4.288-1.918,5.469-2.414,11.041-4.616,16.506-7.037,1.049,11.469,2.769,22.861,3.966,34.318a2.1,2.1,0,0,0,2.58,2.02c6.648-1.851,13.167-4.222,19.689-6.495a141.974,141.974,0,0,1,.489,36.249,2.286,2.286,0,0,0,2.838,2.222q10.1-3.04,20.2-6.107c-.66,5.528-1.232,11.06-2.071,16.568-.977,6.406-2.074,12.78-2.907,19.206C174.133,305.337,173.5,316.982,169.752,327.471Z" transform="translate(-104.509 -192.576)" fill="#ffbf4a"/>
    </g>
    <g id="Group_752" data-name="Group 752" transform="translate(118.523 209.582)">
      <g id="Group_751" data-name="Group 751">
        <path id="Path_359" data-name="Path 359" d="M113.632,203.988c-.008,3.248.391,6.495.663,9.729.281,3.312.6,6.621.9,9.93.3,3.247.668,6.487,1.025,9.729.36,3.283.567,6.641,1.159,9.891.278,1.517,2.782,1.174,2.7-.365-.179-3.243-.759-6.507-1.168-9.729-.417-3.286-.823-6.574-1.294-9.853-.463-3.22-.915-6.442-1.4-9.658-.5-3.27-.869-6.584-1.65-9.8a.476.476,0,0,0-.931.126Z" transform="translate(-113.632 -203.523)" fill="#39262b"/>
      </g>
    </g>
    <g id="Group_754" data-name="Group 754" transform="translate(142.781 250.763)">
      <g id="Group_753" data-name="Group 753">
        <path id="Path_360" data-name="Path 360" d="M130.477,229.115c-.335,1.8-.911,3.537-1.194,5.362-.269,1.733-.47,3.472-.613,5.219-.146,1.774-.238,3.549-.246,5.329a28.928,28.928,0,0,0,.232,5.5c.312,1.632,2.664,1.127,2.759-.373.108-1.685-.153-3.439-.181-5.13-.03-1.71-.033-3.422.012-5.134s.138-3.414.258-5.117c.12-1.734.067-3.572.348-5.283.145-.892-1.207-1.286-1.375-.378Z" transform="translate(-128.403 -228.599)" fill="#39262b"/>
      </g>
    </g>
    <g id="Group_756" data-name="Group 756" transform="translate(142.653 279.679)">
      <g id="Group_755" data-name="Group 755">
        <path id="Path_361" data-name="Path 361" d="M129.954,246.3l-.186,0,.819.47a1.363,1.363,0,0,0-.181-.241,1.039,1.039,0,0,0-.453-.264,1.937,1.937,0,0,0-.305-.039l-.082-.008-.169-.016a1.059,1.059,0,0,0-.54.146l-.217.168a1.062,1.062,0,0,0-.276.473.821.821,0,0,0-.02.427,1.1,1.1,0,0,0,.767.892,1.082,1.082,0,0,0,.57,0l.158-.034.074-.016a1,1,0,0,0,.677-.526l-.819.47c.062-.007.125-.012.186-.016a.723.723,0,0,0,.363-.08.967.967,0,0,0,.58-.862c-.012-.084-.023-.168-.033-.251a.936.936,0,0,0-.243-.415l-.19-.148a.924.924,0,0,0-.478-.13Z" transform="translate(-128.325 -246.207)" fill="#39262b"/>
      </g>
    </g>
    <g id="Group_758" data-name="Group 758" transform="translate(171.668 268.616)">
      <g id="Group_757" data-name="Group 757">
        <path id="Path_362" data-name="Path 362" d="M148.663,240.068c-.736,2.787-1.34,5.6-1.795,8.451q-.333,2.094-.57,4.2a20.353,20.353,0,0,0-.255,4.408,1.281,1.281,0,0,0,1.1,1.242,1.25,1.25,0,0,0,1.386-.9,33.422,33.422,0,0,0,.241-4.253q.086-2.118.281-4.23a84.1,84.1,0,0,1,1.223-8.467c.205-1.043-1.33-1.493-1.608-.443Z" transform="translate(-145.993 -239.47)" fill="#39262b"/>
      </g>
    </g>
    <g id="Group_760" data-name="Group 760" transform="translate(171.458 296.739)">
      <g id="Group_759" data-name="Group 759">
        <path id="Path_363" data-name="Path 363" d="M147.129,259.213a1.31,1.31,0,0,0,0-2.618,1.31,1.31,0,0,0,0,2.618Z" transform="translate(-145.866 -256.595)" fill="#39262b"/>
      </g>
    </g>
    <g id="Group_762" data-name="Group 762" transform="translate(154.05 234.17)">
      <g id="Group_761" data-name="Group 761">
        <path id="Path_364" data-name="Path 364" d="M135.692,218.95a12.034,12.034,0,0,0-.386,2.4c-.023.381-.03.764-.038,1.145a8.3,8.3,0,0,0,.079,1.353.974.974,0,0,0,.452.586.981.981,0,0,0,1.44-1.108c-.1-.353-.207-.7-.291-1.058a4.588,4.588,0,0,1-.126-.918,10.394,10.394,0,0,1,.071-2.071.642.642,0,0,0-.435-.765.63.63,0,0,0-.765.434Z" transform="translate(-135.265 -218.495)" fill="#39262b"/>
      </g>
    </g>
    <g id="Group_764" data-name="Group 764" transform="translate(154.757 247.098)">
      <g id="Group_763" data-name="Group 763">
        <path id="Path_365" data-name="Path 365" d="M136.713,228.471a1.052,1.052,0,0,0,0-2.1,1.052,1.052,0,0,0,0,2.1Z" transform="translate(-135.696 -226.367)" fill="#39262b"/>
      </g>
    </g>
    <g id="Group_766" data-name="Group 766" transform="translate(153.431 254.879)">
      <g id="Group_765" data-name="Group 765">
        <path id="Path_366" data-name="Path 366" d="M136.023,233.453a1.175,1.175,0,0,0,0-2.348,1.175,1.175,0,0,0,0,2.348Z" transform="translate(-134.888 -231.105)" fill="#39262b"/>
      </g>
    </g>
  </g>
</svg>
